<svg width="990" height="202" viewBox="0 0 990 202" fill="none" xmlns="http://www.w3.org/2000/svg">
<path d="M239.5 77.5L0.5 198.5H41L122 164L138 199.5H178.5L156.5 150.5L239 115L252 123L267.5 133.5C281.5 152 258.5 162 246.5 163C225.573 164.744 213 152.333 208.5 145L180 165C210.8 211.4 259 205 284.5 189.5C337.5 145 287 86 239.5 77.5Z" fill="#445FBE"/>
<path d="M51.5 165L0 190.5L88.5 0L143.5 118L112 134.5L88.5 84.5L51.5 165Z" fill="#42BBDD"/>
<path d="M198 90.5001L232.5 73.0001C218.1 65.4003 219.833 55.0001 222.5 50.5C229.7 41.3 241 40.5 246.5 40.5001C258 41 266.5 49.6667 270 55.5L297 36C293 25.6 282 16.8333 277.5 13.5C266.3 4.7 243.5 4.00014 233 5.00014C201.8 8.60014 188 30.1668 185 40.5001C177 66.9001 190.333 84.8335 198 90.5001Z" fill="#42BBDD"/>
<path d="M406.166 150.464C406.166 146.032 404.689 142.246 401.734 139.107C398.779 135.783 394.901 132.921 390.1 130.52C385.299 127.935 380.036 125.442 374.311 123.041C368.771 120.456 363.046 117.686 357.137 114.731C351.412 111.592 346.149 107.991 341.348 103.928C336.547 99.8653 332.669 94.9717 329.714 89.247C326.944 83.3377 325.559 76.3203 325.559 68.195C325.559 56.1917 328.421 45.9427 334.146 37.448C339.871 28.7687 347.627 22.1207 357.414 17.504C367.386 12.8873 378.651 10.579 391.208 10.579C398.595 10.579 406.812 11.41 415.861 13.072C424.91 14.734 433.035 17.3193 440.237 20.828L425.833 57.115C419.554 52.3137 412.629 48.6203 405.058 46.035C397.671 43.265 390.931 41.88 384.837 41.88C379.851 41.88 375.881 42.8033 372.926 44.65C369.971 46.4967 367.848 48.805 366.555 51.575C365.262 54.1603 364.616 56.7457 364.616 59.331C364.616 63.5783 366.093 67.1793 369.048 70.134C372.003 73.0887 375.881 75.8587 380.682 78.444C385.483 80.8447 390.746 83.3377 396.471 85.923C402.38 88.5083 408.197 91.3707 413.922 94.51C419.647 97.6493 424.91 101.343 429.711 105.59C434.512 109.837 438.39 114.916 441.345 120.825C444.3 126.55 445.777 133.475 445.777 141.6C445.777 154.711 442.545 165.699 436.082 174.563C429.619 183.427 421.124 190.075 410.598 194.507C400.257 198.939 388.9 201.155 376.527 201.155C364.339 201.155 353.167 199.493 343.01 196.169C332.853 192.66 324.266 188.782 317.249 184.535L333.869 149.356C341.44 155.081 349.658 159.79 358.522 163.483C367.386 167.176 375.881 169.023 384.006 169.023C390.839 169.023 396.194 167.361 400.072 164.037C404.135 160.713 406.166 156.189 406.166 150.464ZM606.171 197H481.244V14.734H597.861V46.589H523.348V165.145H606.171V197ZM494.54 119.717V89.524H586.781V119.717H494.54ZM684.551 197V14.734H728.317V197H684.551ZM626.935 47.974V14.734H786.487V47.974H626.935Z" fill="#445FBE"/>
<path d="M841.9 167.286C841.261 161.104 843.943 141.615 845.365 132.644C837.05 124.116 835.86 104.486 835.771 95.8695C836.198 76.2566 851.938 59.0065 860.287 52.6998C871.16 43.5329 891.821 42.8401 900.792 43.6395C907.188 36.8176 928.329 31.2038 938.099 29.2496L932.237 26.0519L930.638 11.129L913.05 5L901.592 16.4586L881.606 16.7251L870.414 5L853.093 11.129L851.227 26.5848L834.439 38.5764L818.983 35.9116L808.324 50.568L815.252 64.6914L809.123 83.6114L795 91.0728V109.193L809.656 116.122L815.785 135.575L808.057 149.165L818.717 164.088L834.705 160.89L841.9 167.286Z" fill="#445FBE"/>
<path d="M852.826 188.605C849.202 178.585 851.849 152.63 853.626 140.905C866.63 154.335 884.804 156.805 892.265 156.361C923.603 155.295 939.077 133.888 942.896 123.317C950.144 101.999 945.916 82.99 942.896 76.1504C937.14 60.3748 920.601 50.213 913.05 47.1041C922.431 39.4295 951.601 36.2673 965.014 35.6455L975.94 50.5684L968.478 65.2247L975.14 83.8783L989.53 90.8067V109.194L974.607 117.455L968.478 135.309L975.94 149.965L965.28 164.355L949.025 161.424L932.503 173.948L931.171 188.605L913.317 195L902.125 183.808H881.872L870.68 195L852.826 188.605Z" fill="#445FBE"/>
</svg>
