<?xml version="1.0" encoding="utf-8"?>
<!-- Uploaded to: SVG Repo, www.svgrepo.com, Generator: SVG Repo Mixer Tools -->
<svg width="800px" height="800px" viewBox="0 0 64 64" xmlns="http://www.w3.org/2000/svg">
<title>gate</title>
<g id="gate">
<path d="M5,62H5a4,4,0,0,1,4-4H56a4,4,0,0,1,4,4h0" style="fill:none;stroke:#000000;stroke-linecap:round;stroke-linejoin:round;stroke-width:2px"/>
<line x1="6.919" y1="37.586" x2="3.223" y2="41.281" style="fill:none;stroke:#000000;stroke-linecap:round;stroke-linejoin:round;stroke-width:2px"/>
<line x1="3.223" y1="37.586" x2="6.919" y2="41.281" style="fill:none;stroke:#000000;stroke-linecap:round;stroke-linejoin:round;stroke-width:2px"/>
<line x1="37" y1="16.32" x2="37" y2="24.343" style="fill:none;stroke:#000000;stroke-linecap:round;stroke-linejoin:round;stroke-width:2px"/>
<line x1="27" y1="24.411" x2="27" y2="16.32" style="fill:none;stroke:#000000;stroke-linecap:round;stroke-linejoin:round;stroke-width:2px"/>
<path d="M14.215,15.7a3.03,3.03,0,0,0-.046.524c0,2.006,1.989,3.631,4.443,3.631s4.442-1.625,4.442-3.631" style="fill:none;stroke:#000000;stroke-linecap:round;stroke-linejoin:round;stroke-width:2px"/>
<polyline points="22.976 57.588 22.415 48 14.585 48 14.025 57.581" style="fill:none;stroke:#000000;stroke-linecap:round;stroke-linejoin:round;stroke-width:2px"/>
<path d="M49.785,15.706a3.007,3.007,0,0,1,.046.522c0,2.006-1.989,3.631-4.443,3.631s-4.442-1.625-4.442-3.631" style="fill:none;stroke:#000000;stroke-linecap:round;stroke-linejoin:round;stroke-width:2px"/>
<path d="M54.532,11.427v.345a3.463,3.463,0,0,1-3.143,3.52,272.159,272.159,0,0,1-38.773.034,3.474,3.474,0,0,1-3.148-3.52v-.333" style="fill:none;stroke:#000000;stroke-linecap:round;stroke-linejoin:round;stroke-width:2px"/>
<path d="M9.468,23.576s24.32,2.993,45.064,0v1.2a3.463,3.463,0,0,1-3.143,3.52,272.159,272.159,0,0,1-38.773.034,3.474,3.474,0,0,1-3.148-3.52Z" style="fill:none;stroke:#000000;stroke-linecap:round;stroke-linejoin:round;stroke-width:2px"/>
<path d="M4,5.5s30.222,3.489,56,0V6.89a4.143,4.143,0,0,1-3.905,4.1,360.57,360.57,0,0,1-48.184.039A4.155,4.155,0,0,1,4,6.929Z" style="fill:none;stroke:#000000;stroke-linecap:round;stroke-linejoin:round;stroke-width:2px"/>
<polyline points="41.024 57.59 41.585 48 49.415 48 49.976 57.59" style="fill:none;stroke:#000000;stroke-linecap:round;stroke-linejoin:round;stroke-width:2px"/>
<line x1="32.044" y1="19" x2="32.044" y2="20.647" style="fill:#ffce56;stroke:#000000;stroke-linecap:round;stroke-linejoin:round;stroke-width:2px"/>
<circle cx="28" cy="34" r="1"/>
<circle cx="28" cy="38" r="1"/>
<circle cx="28" cy="42" r="1"/>
<circle cx="28" cy="46" r="1"/>
<circle cx="36" cy="34" r="1"/>
<circle cx="36" cy="38" r="1"/>
<circle cx="36" cy="42" r="1"/>
<circle cx="36" cy="46" r="1"/>
<line x1="46" y1="53" x2="46" y2="58" style="fill:none;stroke:#000000;stroke-linecap:round;stroke-linejoin:round;stroke-width:2px"/>
<line x1="18" y1="53" x2="18" y2="58" style="fill:none;stroke:#000000;stroke-linecap:round;stroke-linejoin:round;stroke-width:2px"/>
<line x1="16" y1="48" x2="16" y2="29" style="fill:none;stroke:#000000;stroke-linejoin:round;stroke-width:2px"/>
<line x1="21" y1="48" x2="21" y2="29" style="fill:none;stroke:#000000;stroke-linejoin:round;stroke-width:2px"/>
<line x1="16" y1="24" x2="16" y2="19" style="fill:none;stroke:#000000;stroke-linejoin:round;stroke-width:2px"/>
<line x1="21" y1="24" x2="21" y2="19" style="fill:none;stroke:#000000;stroke-linejoin:round;stroke-width:2px"/>
<line x1="43" y1="48" x2="43" y2="29" style="fill:none;stroke:#000000;stroke-linejoin:round;stroke-width:2px"/>
<line x1="48" y1="48" x2="48" y2="29" style="fill:none;stroke:#000000;stroke-linejoin:round;stroke-width:2px"/>
<line x1="43" y1="24" x2="43" y2="19" style="fill:none;stroke:#000000;stroke-linejoin:round;stroke-width:2px"/>
<line x1="48" y1="24" x2="48" y2="19" style="fill:none;stroke:#000000;stroke-linejoin:round;stroke-width:2px"/>
</g>
</svg>