<?xml version="1.0" encoding="UTF-8"?>
<svg version="1.1" xmlns="http://www.w3.org/2000/svg" width="699" height="596">
<path d="M0 0 C3.26711344 0.75364936 3.62514779 1.51706986 5.48608398 4.22192383 C6.47922911 5.87865858 7.45384491 7.54658689 8.41357422 9.22290039 C9.52613659 11.02923636 10.64146598 12.83387043 11.75927734 14.63696289 C13.49363899 17.48241903 15.20551186 20.33462222 16.86938477 23.22192383 C23.49421706 35.32977125 23.49421706 35.32977125 34.5925293 42.62670898 C39.03788672 43.6246031 43.49467574 44.03782615 48.03311157 44.36010742 C52.16074273 44.75835355 56.08796162 45.80028949 60.10107422 46.80883789 C77.12468703 51.27468584 77.12468703 51.27468584 93.81982422 48.33618164 C98.11023264 45.58462291 101.76122114 42.25995229 105.39306641 38.69995117 C109.36969046 35.03943532 113.90326874 32.19969413 118.40966797 29.23852539 C120.01064306 28.15034079 121.60980994 27.05948755 123.20654297 25.96508789 C124.35747253 25.18106913 125.50846708 24.39714571 126.65966797 23.61352539 C136.40461274 28.72268404 146.04355837 34.01706503 155.65966797 39.36352539 C156.24898102 39.6910379 156.83829407 40.01855042 157.44546509 40.35598755 C163.53621502 43.74227731 169.61293173 47.14932825 175.65966797 50.61352539 C175.63635155 51.56739891 175.63635155 51.56739891 175.61256409 52.5405426 C175.45737457 59.17534782 175.35198953 65.80963548 175.27514648 72.44580078 C175.24000244 74.92029775 175.19227642 77.39464997 175.1315918 79.86865234 C175.04641351 83.431109 175.00691701 86.99164046 174.97607422 90.55493164 C174.93994522 91.65623917 174.90381622 92.75754669 174.86659241 93.89222717 C174.86378549 99.41642978 175.08260805 102.71964374 179.0859375 106.73925781 C180.26137708 107.71667162 181.45068085 108.67792606 182.65966797 109.61352539 C183.78239713 110.84687986 184.89131885 112.09330918 185.97216797 113.36352539 C188.81695048 116.66219455 191.7226609 119.89659178 194.65966797 123.11352539 C199.71612946 128.66105446 204.72880568 134.23213328 209.47216797 140.05102539 C211.6780618 142.63507245 212.41324319 143.49498291 215.72244263 143.80970764 C216.57071625 143.84301682 217.41898987 143.87632599 218.29296875 143.91064453 C219.25381378 143.9506105 220.21465881 143.99057648 221.20462036 144.03175354 C222.2442392 144.07033981 223.28385803 144.10892609 224.35498047 144.14868164 C225.41756073 144.19165878 226.48014099 144.23463593 227.57492065 144.27891541 C230.97801504 144.4155686 234.38131966 144.54586494 237.78466797 144.67602539 C240.08806999 144.76740456 242.3914557 144.8591961 244.69482422 144.95141602 C250.34959127 145.17690935 256.00454393 145.39718023 261.65966797 145.61352539 C266.60589238 155.27991631 271.24418309 165.05312945 275.65136719 174.97631836 C276.33260299 176.50472779 277.01927282 178.03072502 277.7109375 179.55444336 C278.72600062 181.79061368 279.72578541 184.03304292 280.72216797 186.27758789 C281.03347656 186.95673248 281.34478516 187.63587708 281.66552734 188.33560181 C282.79627522 190.92122834 283.70060674 193.00104659 283.51000977 195.85253906 C282.53635818 197.86888959 281.43740204 199.41259865 279.99169922 201.12524414 C279.43442139 201.79297852 278.87714355 202.46071289 278.30297852 203.14868164 C277.69881104 203.85895508 277.09464355 204.56922852 276.47216797 205.30102539 C275.20371532 206.81516112 273.93549326 208.32949004 272.66748047 209.84399414 C272.01038086 210.62436035 271.35328125 211.40472656 270.67626953 212.20874023 C267.36952735 216.15201027 264.11089395 220.13464881 260.84716797 224.11352539 C259.67468285 225.54117729 258.5015646 226.9683096 257.32763672 228.39477539 C256.83545654 228.99354492 256.34327637 229.59231445 255.83618164 230.20922852 C254.65966797 231.61352539 254.65966797 231.61352539 253.65966797 232.61352539 C253.73916917 236.18982427 254.14614863 239.74871035 254.46618652 243.31072998 C254.68192548 245.87843189 254.85732507 248.44747777 255.03173828 251.01831055 C255.62541039 277.95551064 255.62541039 277.95551064 266.78466797 301.06274414 C271.36795022 304.5518671 276.22776703 306.98395304 281.54345703 309.16040039 C287.38022965 311.88215459 292.47755889 315.82158564 297.65966797 319.61352539 C296.86065167 324.55339227 296.06105793 329.49316526 295.26098633 334.43286133 C294.99032952 336.10438669 294.71981584 337.77593523 294.44946289 339.44750977 C294.31967041 340.24995117 294.18987793 341.05239258 294.05615234 341.87915039 C293.86087448 343.08707245 293.86087448 343.08707245 293.66165161 344.31939697 C293.39681415 345.95081856 293.13026699 347.5819635 292.86203003 349.21282959 C292.17579964 353.38826602 291.51387278 357.56500674 290.89648438 361.7512207 C290.70775505 362.98650009 290.70775505 362.98650009 290.51521301 364.24673462 C290.2762238 365.8122932 290.04662214 367.37932329 289.82792664 368.94784546 C289.22026983 372.84806181 288.78370397 375.14398239 285.65966797 377.61352539 C283.75393677 378.27508545 283.75393677 378.27508545 281.578125 378.69067383 C280.7590416 378.85745132 279.93995819 379.02422882 279.09605408 379.19606018 C278.21212479 379.36991745 277.3281955 379.54377472 276.41748047 379.72290039 C254.95333215 383.32561812 254.95333215 383.32561812 237.41357422 394.64086914 C234.54651067 399.28180817 232.6618533 404.23176635 230.89697266 409.37866211 C228.59863365 415.38753975 225.20104009 420.81675704 221.97216797 426.36352539 C220.7982354 428.46060654 219.62739544 430.55942358 218.46044922 432.66040039 C216.93593051 435.39621805 215.39853193 438.00522945 213.65966797 440.61352539 C213.96908625 450.55948759 218.75632009 461.43317792 221.64794922 470.9074707 C222.35768802 473.24068956 223.04908402 475.5787143 223.73779297 477.91821289 C223.96057922 478.63177948 224.18336548 479.34534607 224.41290283 480.08053589 C225.25311216 482.9757103 225.83276129 485.03129143 224.96020508 487.96630859 C222.81997764 490.67704908 219.90904632 492.20440704 216.97216797 493.92602539 C215.53312145 494.79586782 214.09572428 495.66844262 212.65966797 496.54321289 C211.86947266 497.02371094 211.07927734 497.50420898 210.26513672 497.99926758 C205.27489583 501.09104726 200.37958603 504.33003465 195.47216797 507.55102539 C193.52081287 508.83168641 191.56901515 510.11167335 189.61669922 511.39086914 C188.36336792 512.21445923 188.36336792 512.21445923 187.0847168 513.0546875 C186.28445068 513.569104 185.48418457 514.08352051 184.65966797 514.61352539 C183.81106201 515.16081299 182.96245605 515.70810059 182.08813477 516.27197266 C178.98920697 517.98390673 176.15484981 518.2708605 172.65966797 518.61352539 C173.09279297 519.53584961 173.09279297 519.53584961 173.53466797 520.47680664 C173.90591797 521.28504883 174.27716797 522.09329102 174.65966797 522.92602539 C175.03091797 523.7265332 175.40216797 524.52704102 175.78466797 525.35180664 C176.65966797 527.61352539 176.65966797 527.61352539 176.65966797 530.61352539 C143.65966797 530.61352539 110.65966797 530.61352539 76.65966797 530.61352539 C58.34969438 490.56045816 58.34969438 490.56045816 52.09716797 476.36352539 C47.4051185 465.72131731 42.62095067 455.13323807 37.65966797 444.61352539 C30.21274851 446.94166758 23.16978749 449.90496186 16.03466797 453.05102539 C13.33540422 454.23229846 10.63438745 455.40953211 7.93310547 456.58618164 C7.20508728 456.90353271 6.47706909 457.22088379 5.72698975 457.54785156 C-3.93690827 461.75366445 -13.64001695 465.86760192 -23.34033203 469.98852539 C-25.34888808 470.84217759 -27.35743285 471.69585635 -29.3659668 472.54956055 C-32.47945693 473.87282359 -35.59298535 475.19599622 -38.70661926 476.5189209 C-49.65117208 481.16933439 -60.59167858 485.82923346 -71.53182983 490.48999023 C-74.89343669 491.92202301 -78.25517165 493.35375465 -81.61694336 494.78540039 C-92.34773194 499.35543074 -103.07771023 503.92734738 -113.80561829 508.50413513 C-118.22146895 510.38802335 -122.63764476 512.27114881 -127.0538969 514.15409565 C-130.07813058 515.44360179 -133.1021104 516.73369832 -136.12576294 518.02456665 C-139.46116174 519.44849973 -142.7971637 520.87101058 -146.13330078 522.29321289 C-147.12746002 522.71808487 -148.12161926 523.14295685 -149.14590454 523.58070374 C-150.5090126 524.16131813 -150.5090126 524.16131813 -151.8996582 524.75366211 C-153.08430916 525.25916092 -153.08430916 525.25916092 -154.29289246 525.77487183 C-157.52111086 527.09718527 -160.07181805 527.73808255 -163.53544617 527.73377991 C-164.38939972 527.73515457 -165.24335327 527.73652924 -166.1231842 527.73794556 C-167.05682297 527.73435028 -167.99046173 527.730755 -168.95239258 527.72705078 C-170.43071564 527.72726982 -170.43071564 527.72726982 -171.93890381 527.72749329 C-175.20164173 527.72679574 -178.46432281 527.71901067 -181.72705078 527.71118164 C-183.98720773 527.7093169 -186.24736508 527.70789326 -188.50752258 527.70689392 C-194.46038933 527.70307315 -200.41323174 527.69324659 -206.36608887 527.68218994 C-212.43888011 527.67196639 -218.51167529 527.66739427 -224.58447266 527.66235352 C-236.50310315 527.65162395 -248.42171557 527.63455277 -260.34033203 527.61352539 C-257.38952811 525.27703167 -254.38678612 523.48623923 -251.04541016 521.7590332 C-249.98713013 521.21051697 -248.9288501 520.66200073 -247.83850098 520.09686279 C-246.69441772 519.5093927 -245.55033447 518.92192261 -244.37158203 518.31665039 C-243.16283776 517.69322229 -241.95413908 517.0697058 -240.7454834 516.44610596 C-226.90691672 509.32002789 -212.9686196 502.39290006 -199.03063965 495.46386719 C-181.43104385 486.73925201 -181.43104385 486.73925201 -163.99658203 477.69165039 C-156.07093115 473.47472211 -148.06110247 469.43303626 -140.02783203 465.42602539 C-139.39346725 465.10956306 -138.75910248 464.79310074 -138.10551453 464.46704865 C-132.85583228 461.84921523 -127.60354604 459.2366214 -122.35119629 456.62414551 C-117.78389227 454.3521412 -113.21755658 452.07820813 -108.65283203 449.80102539 C-107.69961563 449.32555771 -107.69961563 449.32555771 -106.72714233 448.84048462 C-99.3889566 445.17708554 -92.08000252 441.46854082 -84.84033203 437.61352539 C-76.96742389 433.42132045 -69.00903288 429.40707635 -61.02783203 425.42602539 C-60.39324066 425.10944977 -59.75864929 424.79287415 -59.10482788 424.46670532 C-53.85537453 421.84898632 -48.60331692 419.23650744 -43.35119629 416.62414551 C-38.78389227 414.3521412 -34.21755628 412.07820872 -29.65283203 409.80102539 C-29.01702209 409.48388077 -28.38121216 409.16673615 -27.72613525 408.83998108 C-20.4091037 405.18713914 -13.12112198 401.48964277 -5.90283203 397.64477539 C2.13449789 393.36434624 10.26177757 389.27179522 18.40966797 385.20727539 C19.06623383 384.87971252 19.72279968 384.55214966 20.39926147 384.21466064 C25.83831301 381.50214985 31.2799663 378.79487295 36.72167969 376.08770752 C41.45218804 373.73409172 46.18172709 371.37854486 50.90966797 369.01977539 C51.8846373 368.53343124 51.8846373 368.53343124 52.87930298 368.03726196 C62.25300797 363.35754027 71.56872985 358.57984717 80.81201172 353.64672852 C81.44478027 353.31294189 82.07754883 352.97915527 82.72949219 352.63525391 C84.10123938 351.90912666 85.4668694 351.1713913 86.828125 350.42578125 C87.53694824 350.04881104 88.24577148 349.67184082 88.97607422 349.28344727 C89.61101807 348.93922729 90.24596191 348.59500732 90.90014648 348.24035645 C92.65966797 347.61352539 92.65966797 347.61352539 95.65966797 348.61352539 C97.09038256 351.20937854 98.33868352 353.75091402 99.54638672 356.44946289 C99.92061768 357.26343033 100.29484863 358.07739777 100.68041992 358.91603088 C101.9126241 361.60243304 103.12989507 364.29532872 104.34716797 366.98852539 C105.19820137 368.85166481 106.05017993 370.71437277 106.90307617 372.57666016 C108.64793953 376.39091088 110.38680511 380.20780765 112.12060547 384.02709961 C114.46419252 389.18830129 116.82433598 394.34174094 119.19091797 399.49243164 C125.77209269 413.82514535 132.32380095 428.17024958 138.65966797 442.61352539 C151.81243351 438.33034814 162.10207817 432.69879824 172.65966797 423.61352539 C173.25263672 423.10563477 173.84560547 422.59774414 174.45654297 422.07446289 C200.76877367 397.64167724 216.45727908 356.45170444 217.88085938 321.10522461 C218.02519089 316.06630377 218.04617482 311.02922191 218.03466797 305.98852539 C218.03412415 305.08956543 218.03358032 304.19060547 218.03302002 303.2644043 C217.98915461 287.41670826 216.79809531 272.18458082 213.65966797 256.61352539 C213.35416016 255.07100098 213.35416016 255.07100098 213.04248047 253.49731445 C207.98421011 228.76018672 199.89365327 204.23073355 188.65966797 181.61352539 C188.31693848 180.91179199 187.97420898 180.21005859 187.62109375 179.48706055 C183.49473306 171.10199538 178.8794367 163.6445683 172.65966797 156.61352539 C171.92619141 155.76016602 171.19271484 154.90680664 170.43701172 154.02758789 C165.83216875 148.76716693 161.06388792 144.03916718 155.65966797 139.61352539 C155.15226074 139.18845703 154.64485352 138.76338867 154.12207031 138.32543945 C126.28089588 115.03253612 93.31097738 98.04400883 57.65966797 90.61352539 C56.39380859 90.31704102 55.12794922 90.02055664 53.82373047 89.71508789 C30.15714022 84.51927592 7.17538177 87.46009286 -15.34033203 95.61352539 C-11.6035287 104.97848706 -7.36113898 114.06163552 -3.0151062 123.15509033 C-0.99352115 127.38563582 1.01830249 131.6208206 3.03076172 135.85571289 C3.43149399 136.698508 3.83222626 137.5413031 4.24510193 138.40963745 C7.61328391 145.49984986 10.92977941 152.61276529 14.22216797 159.73852539 C19.14639563 170.38991211 24.14029372 181.00672901 29.15966797 191.61352539 C34.72416677 203.37268105 40.24437121 215.15015664 45.70654297 226.95727539 C50.14269157 236.53232881 54.64626582 246.07470384 59.15966797 255.61352539 C70.16121185 278.86966704 80.9694124 302.21255271 91.65966797 325.61352539 C87.82774241 328.91284404 83.78682109 331.27053362 79.28857422 333.51977539 C78.57839645 333.88110565 77.86821869 334.24243591 77.13652039 334.61471558 C75.61967396 335.38610183 74.10159653 336.15507149 72.58239746 336.92181396 C68.59766894 338.93375667 64.62274853 340.96486648 60.64794922 342.99633789 C59.8635849 343.39688385 59.07922058 343.79742981 58.27108765 344.21011353 C52.0958242 347.37142593 45.98288805 350.63502436 39.90966797 353.98852539 C32.28376837 358.19298833 24.62066146 362.31686674 16.90966797 366.36352539 C15.91354492 366.88994629 14.91742188 367.41636719 13.89111328 367.95874023 C12.97426758 368.43778809 12.05742187 368.91683594 11.11279297 369.41040039 C10.2997168 369.83675781 9.48664063 370.26311523 8.64892578 370.70239258 C6.65966797 371.61352539 6.65966797 371.61352539 4.65966797 371.61352539 C-4.39255715 352.58664986 -13.44227692 333.5587838 -22.40283203 314.48852539 C-34.30462872 289.16036531 -46.28741995 263.87013011 -58.34033203 238.61352539 C-64.11578469 249.9805115 -69.58648086 261.46298936 -74.90283203 273.05102539 C-75.69289811 274.76821025 -76.48310251 276.48533147 -77.2734375 278.20239258 C-83.43621018 291.60182546 -89.54454471 305.02585543 -95.63720703 318.45727539 C-99.48187011 326.9327526 -103.34562852 335.39945567 -107.21533203 343.86352539 C-107.5453421 344.58542053 -107.87535217 345.30731567 -108.21536255 346.05108643 C-113.07276008 356.6746744 -117.94762735 367.29017037 -122.8286438 377.90292358 C-123.18312592 378.67367218 -123.53760803 379.44442078 -123.90283203 380.23852539 C-124.25594452 381.00629303 -124.60905701 381.77406067 -124.97286987 382.56509399 C-129.77944251 393.01796244 -134.56579304 403.47974636 -139.32415771 413.95465088 C-140.26474366 416.02225443 -141.20861285 418.08832957 -142.15332031 420.15405273 C-144.91473012 426.20153009 -147.63322873 432.25601644 -150.21533203 438.38305664 C-150.65369385 439.40407471 -151.09205566 440.42509277 -151.54370117 441.47705078 C-152.33182958 443.32038256 -153.10125545 445.17189913 -153.84594727 447.03320312 C-154.19343018 447.83830322 -154.54091309 448.64340332 -154.89892578 449.47290039 C-155.18050537 450.15835937 -155.46208496 450.84381836 -155.75219727 451.55004883 C-160.36117951 457.53853736 -169.1838108 460.67638978 -175.79760742 463.96362305 C-176.81521652 464.47337677 -177.83282562 464.98313049 -178.88127136 465.5083313 C-182.23157147 467.18532639 -185.58470911 468.85655867 -188.93798828 470.52758789 C-191.29298785 471.70449051 -193.64783865 472.88169086 -196.00254822 474.05917358 C-200.94133812 476.52810122 -205.88166001 478.99394021 -210.82299805 481.45776367 C-216.4719046 484.27441815 -222.11876168 487.09514438 -227.76440436 489.9183346 C-233.25329664 492.66309055 -238.74334881 495.40551819 -244.23400688 498.14673996 C-246.54020688 499.29827072 -248.84618029 500.45025541 -251.15190315 501.60274124 C-262.83853589 507.44207465 -274.54473901 513.23810882 -286.31469727 518.90795898 C-287.29648232 519.38374704 -288.27826738 519.8595351 -289.2898035 520.34974098 C-290.63798995 520.99542062 -290.63798995 520.99542062 -292.01341248 521.65414429 C-292.8036402 522.03408224 -293.59386793 522.4140202 -294.40804195 522.80547142 C-296.34033203 523.61352539 -296.34033203 523.61352539 -298.34033203 523.61352539 C-296.49850429 517.70916288 -294.34044889 512.14192429 -291.63720703 506.58227539 C-291.28280045 505.84151764 -290.92839386 505.10075989 -290.56324768 504.33755493 C-289.804201 502.75161981 -289.04296108 501.1667328 -288.2796936 499.58282471 C-286.23414319 495.33594441 -284.20697782 491.08031543 -282.18017578 486.82446289 C-281.76918137 485.96198944 -281.35818695 485.09951599 -280.93473816 484.21090698 C-277.07710529 476.0968543 -273.34664151 467.92817778 -269.65283203 459.73852539 C-264.80057181 448.98884319 -259.86809761 438.28227824 -254.84033203 427.61352539 C-249.77332841 416.86054694 -244.79927857 406.0702141 -239.90283203 395.23852539 C-234.49013868 383.26542098 -228.95056944 371.35830281 -223.33135986 359.48083496 C-218.06445311 348.34242891 -212.92082699 337.15346395 -207.84570312 325.92651367 C-202.95604721 315.11388703 -197.95976669 304.35590795 -192.90155029 293.62121582 C-188.14963924 283.53155437 -183.49676865 273.40101588 -178.90283203 263.23852539 C-173.49013868 251.26542098 -167.95056944 239.35830281 -162.33135986 227.48083496 C-157.06445311 216.34242891 -151.92082699 205.15346395 -146.84570312 193.92651367 C-141.95604721 183.11388703 -136.95976669 172.35590795 -131.90155029 161.62121582 C-127.14963924 151.53155437 -122.49676865 141.40101588 -117.90283203 131.23852539 C-112.49013868 119.26542098 -106.95056944 107.35830281 -101.33135986 95.48083496 C-96.38699812 85.02454413 -91.54284751 74.52770124 -86.77783203 63.98852539 C-81.66467277 52.68234093 -76.48194267 41.4116143 -71.21533203 30.17602539 C-70.90304657 29.50875427 -70.59076111 28.84148315 -70.26901245 28.1539917 C-66.72659471 20.58929087 -63.12689398 13.05970724 -59.34033203 5.61352539 C-57.36033203 7.59352539 -57.36033203 7.59352539 -55.34033203 9.61352539 C-54.94316483 9.13690964 -54.54599762 8.66029388 -54.13679504 8.16923523 C-51.90047158 6.23261288 -50.5169682 6.06719063 -47.59692383 5.72216797 C-46.15478767 5.54232109 -46.15478767 5.54232109 -44.68351746 5.35884094 C-43.64600845 5.24308212 -42.60849945 5.1273233 -41.53955078 5.00805664 C-40.47041946 4.87912521 -39.40128815 4.75019379 -38.29975891 4.61735535 C-36.03673446 4.34677757 -33.77296175 4.0823971 -31.50854492 3.82373047 C-28.05044059 3.42860864 -24.59479028 3.01600748 -21.13916016 2.59985352 C-18.93941179 2.33906165 -16.73954534 2.07926343 -14.53955078 1.82055664 C-12.99239632 1.63780937 -12.99239632 1.63780937 -11.41398621 1.45137024 C-9.52315363 1.23628069 -7.63034502 1.03758312 -5.735672 0.85946655 C-3.17197688 0.62821069 -3.17197688 0.62821069 0 0 Z " fill="#435FBD" transform="translate(299.34033203125,56.386474609375)"/>
<path d="M0 0 C1.93224786 2.46107359 3.4903159 4.77099534 4.734375 7.640625 C5.21245605 8.72633789 5.21245605 8.72633789 5.70019531 9.83398438 C6.04663086 10.63126953 6.39306641 11.42855469 6.75 12.25 C10.79310261 21.39241862 14.99374681 30.45554623 19.25 39.5 C20.54848295 42.26027292 21.84669891 45.02067111 23.14453125 47.78125 C23.46682205 48.46668884 23.78911285 49.15212769 24.12117004 49.8583374 C26.28793939 54.47125496 28.43724197 59.09196156 30.57421875 63.71875 C30.86029999 64.33762085 31.14638123 64.9564917 31.44113159 65.59411621 C32.77601318 68.48256209 34.10841068 71.37210651 35.43652344 74.26367188 C38.13041203 80.09654192 40.91513953 85.87175245 43.8046875 91.609375 C48.40985223 100.75476515 52.80501793 109.99629802 57.1875 119.25 C58.03108567 121.02832106 58.87467293 122.80664136 59.71826172 124.58496094 C64.91396548 135.54718516 70.05819625 146.53174559 75.1472168 157.54394531 C79.54634108 167.05399037 84.01783248 176.52887542 88.5 186 C94.06455924 197.75912662 99.58470358 209.53663199 105.046875 221.34375 C109.4830236 230.91880342 113.98659785 240.46117845 118.5 250 C129.50154388 273.25614165 140.30974444 296.59902732 151 320 C147.16807444 323.29931865 143.12715312 325.65700823 138.62890625 327.90625 C137.91872849 328.26758026 137.20855072 328.62891052 136.47685242 329.00119019 C134.96000599 329.77257644 133.44192856 330.5415461 131.92272949 331.30828857 C127.93800097 333.32023128 123.96308057 335.35134109 119.98828125 337.3828125 C119.20391693 337.78335846 118.41955261 338.18390442 117.61141968 338.59658813 C111.43615624 341.75790054 105.32322008 345.02149897 99.25 348.375 C91.62410041 352.57946294 83.96099349 356.70334135 76.25 360.75 C75.25387695 361.2764209 74.25775391 361.8028418 73.23144531 362.34521484 C72.31459961 362.8242627 71.39775391 363.30331055 70.453125 363.796875 C69.64004883 364.22323242 68.82697266 364.64958984 67.98925781 365.08886719 C66 366 66 366 64 366 C54.94777488 346.97312446 45.89805511 327.94525841 36.9375 308.875 C25.03570331 283.54683992 13.05291209 258.25660472 1 233 C-4.77545266 244.36698611 -10.24614883 255.84946397 -15.5625 267.4375 C-16.35256608 269.15468486 -17.14277048 270.87180608 -17.93310547 272.58886719 C-24.09587814 285.98830007 -30.20421267 299.41233004 -36.296875 312.84375 C-40.14153808 321.31922721 -44.00529649 329.78593028 -47.875 338.25 C-48.20501007 338.97189514 -48.53502014 339.69379028 -48.87503052 340.43756104 C-53.73242805 351.06114901 -58.60729532 361.67664498 -63.48831177 372.28939819 C-63.84279388 373.06014679 -64.197276 373.83089539 -64.5625 374.625 C-64.91561249 375.39276764 -65.26872498 376.16053528 -65.63253784 376.9515686 C-70.43911048 387.40443705 -75.22546101 397.86622097 -79.98382568 408.34112549 C-80.92441163 410.40872903 -81.86828082 412.47480418 -82.81298828 414.54052734 C-85.57439809 420.5880047 -88.2928967 426.64249105 -90.875 432.76953125 C-91.31336182 433.79054932 -91.75172363 434.81156738 -92.20336914 435.86352539 C-92.99149755 437.70685717 -93.76092342 439.55837374 -94.50561523 441.41967773 C-94.85309814 442.22477783 -95.20058105 443.02987793 -95.55859375 443.859375 C-95.84017334 444.54483398 -96.12175293 445.23029297 -96.41186523 445.93652344 C-101.02084748 451.92501197 -109.84347877 455.06286439 -116.45727539 458.35009766 C-117.47488449 458.85985138 -118.49249359 459.3696051 -119.54093933 459.89480591 C-122.89123944 461.571801 -126.24437708 463.24303328 -129.59765625 464.9140625 C-131.95265582 466.09096512 -134.30750661 467.26816547 -136.66221619 468.44564819 C-141.60100609 470.91457583 -146.54132798 473.38041482 -151.48266602 475.84423828 C-157.13157256 478.66089276 -162.77842965 481.48161899 -168.42407233 484.30480921 C-173.91296461 487.04956515 -179.40301678 489.7919928 -184.89367485 492.53321457 C-187.19987485 493.68474533 -189.50584826 494.83673002 -191.81157112 495.98921585 C-203.49820386 501.82854926 -215.20440698 507.62458343 -226.97436523 513.29443359 C-227.95615029 513.77022165 -228.93793535 514.24600971 -229.94947147 514.73621559 C-231.29765791 515.38189523 -231.29765791 515.38189523 -232.67308044 516.0406189 C-233.46330817 516.42055685 -234.2535359 516.8004948 -235.06770992 517.19194603 C-237 518 -237 518 -239 518 C-237.15817226 512.09563749 -235.00011686 506.5283989 -232.296875 500.96875 C-231.94246841 500.22799225 -231.58806183 499.4872345 -231.22291565 498.72402954 C-230.46386897 497.13809442 -229.70262905 495.55320741 -228.93936157 493.96929932 C-226.89381116 489.72241902 -224.86664579 485.46679004 -222.83984375 481.2109375 C-222.42884933 480.34846405 -222.01785492 479.4859906 -221.59440613 478.59738159 C-217.73677326 470.48332891 -214.00630948 462.31465239 -210.3125 454.125 C-205.46023978 443.3753178 -200.52776558 432.66875285 -195.5 422 C-190.43299638 411.24702155 -185.45894654 400.45668871 -180.5625 389.625 C-175.14980664 377.65189559 -169.61023741 365.74477742 -163.99102783 353.86730957 C-158.72412108 342.72890352 -153.58049496 331.53993856 -148.50537109 320.31298828 C-143.61571518 309.50036164 -138.61943466 298.74238256 -133.56121826 288.00769043 C-128.80930721 277.91802898 -124.15643662 267.78749049 -119.5625 257.625 C-114.14980664 245.65189559 -108.61023741 233.74477742 -102.99102783 221.86730957 C-97.72412108 210.72890352 -92.58049496 199.53993856 -87.50537109 188.31298828 C-82.61571518 177.50036164 -77.61943466 166.74238256 -72.56121826 156.00769043 C-67.80930721 145.91802898 -63.15643662 135.78749049 -58.5625 125.625 C-53.14980664 113.65189559 -47.61023741 101.74477742 -41.99102783 89.86730957 C-37.04666609 79.41101874 -32.20251548 68.91417585 -27.4375 58.375 C-22.32434074 47.06881554 -17.14161064 35.79808891 -11.875 24.5625 C-11.56271454 23.89522888 -11.25042908 23.22795776 -10.92868042 22.54046631 C-7.38626268 14.97576548 -3.78656195 7.44618185 0 0 Z " fill="#41BADC" transform="translate(240,62)"/>
</svg>
