<?xml version="1.0" encoding="UTF-8"?><svg id="Layer_1" xmlns="http://www.w3.org/2000/svg" viewBox="0 0 210.70588 211.47059"><defs><style>.cls-1{fill:#435ebe;}.cls-2{fill:#41bbdd;}</style></defs><path class="cls-2" d="M108.18434,199.97616c3.45467-4.45546,4.74816-9.08357,4.67645-14.2506-.12623-9.09705-.00734-18.1973-.06856-27.29567-.00932-1.38592,.31258-1.98231,1.77298-2.28204,9.5036-1.9506,18.2371-5.6454,25.33322-12.41888,14.75228-14.08152,19.91773-31.25947,14.08691-50.75262-5.76892-19.28624-19.25828-31.13489-39.15758-34.71096-24.71134-4.44084-48.41948,10.48689-55.66453,34.53423-.43178,1.43317-.94384,1.83868-2.43093,1.89588-7.76673,.29878-13.46497,3.92491-16.74227,11.04328-.50495,1.09676-1.08045,1.34048-2.15772,1.31633-2.83766-.06364-5.68089,.06474-8.51611-.04003-5.59903-.20691-10.90775,.51987-15.61926,4.69037,0-3.67933,.01235-6.93496-.00779-10.19038-.00578-.93441,.73766-.91765,1.30194-1.13123,5.71138-2.16172,11.41385-4.34808,17.14903-6.44487,1.03641-.37892,1.51085-.89277,1.768-1.97057,.68642-2.87707,1.46339-5.73866,2.36549-8.55479,.31382-.97966,.06427-1.51952-.52719-2.21171-3.93872-4.60946-7.80337-9.28276-11.781-13.85801-.83819-.96412-.82326-1.61915-.19896-2.64136,1.57619-2.58081,3.12982-5.18572,4.49328-7.88173,.66538-1.31568,1.47772-1.49369,2.74864-1.27464,5.77716,.99574,11.56994,1.90228,17.34025,2.93507,1.16969,.20936,1.87721-.06245,2.66913-.91466,1.8863-2.02993,3.85869-3.98596,5.88569-5.87597,.79782-.7439,1.07366-1.46141,.89399-2.51936-1.00323-5.90727-1.9354-11.82669-2.95561-17.73093-.22283-1.2896-.07658-2.08955,1.2522-2.76135,2.75354-1.39211,5.41771-2.97127,8.05474-4.57836,.98781-.60201,1.61657-.50209,2.47866,.22772,4.62673,3.91679,9.32833,7.74512,13.95382,11.66334,.87995,.7454,1.58505,1.02604,2.72263,.53379,2.66433-1.1529,5.47825-1.86559,8.34504-2.31268,1.02027-.15912,1.50752-.62961,1.86389-1.60676,2.07067-5.67771,4.25647-11.31346,6.32147-16.99317,.41196-1.13308,.90361-1.60301,2.17377-1.55888,3.09347,.10749,6.19449,.0878,9.28965,.00896,1.13878-.02901,1.6658,.30246,2.06911,1.41378,2.06207,5.68189,4.26701,11.3119,6.33166,16.99289,.40501,1.11444,.97569,1.59407,2.11866,1.8607,2.75416,.6425,5.4867,1.40406,8.18044,2.26615,1.06007,.33926,1.7347,.20005,2.57045-.52035,4.54331-3.91621,9.19095-7.71241,13.69372-11.67379,1.06101-.93344,1.75574-.81269,2.7981-.18501,2.53579,1.52698,5.07349,3.06864,7.71661,4.39231,1.40371,.70298,1.5442,1.55535,1.28913,2.9093-1.09715,5.82369-2.08491,11.66807-3.19629,17.48891-.18067,.94623-.0419,1.51503,.65557,2.17745,2.14998,2.04192,4.26128,4.1297,6.29017,6.29116,.67309,.71705,1.31563,.8797,2.20279,.73242,5.90969-.98105,11.82933-1.9043,17.72972-2.93778,1.44954-.25389,2.3212-.0674,3.04497,1.39792,1.30902,2.65015,2.79298,5.22788,4.39296,7.71417,.76179,1.18378,.49446,1.85938-.29406,2.81295-3.82195,4.62189-7.55261,9.3193-11.37725,13.93891-.66424,.80232-.81626,1.43704-.41908,2.4018,1.13008,2.745,1.91143,5.60461,2.35075,8.5402,.15704,1.04928,.68872,1.48549,1.63844,1.83351,5.67324,2.07897,11.3075,4.26467,16.9884,6.32193,1.16192,.42077,1.56672,.95238,1.52642,2.19537-.10028,3.09424-.09202,6.19548-.00526,9.29048,.03245,1.1576-.33659,1.67112-1.42588,2.06833-5.67513,2.06949-11.30412,4.26556-16.98113,6.32971-1.10796,.40285-1.59679,.96161-1.86341,2.11045-.63937,2.75493-1.39382,5.49111-2.27496,8.17807-.35842,1.09297-.14994,1.74932,.57191,2.55454,4.00443,4.46696,7.93236,9.00259,11.94555,13.46154,.76043,.84489,.94109,1.46375,.31833,2.48821-1.67142,2.74957-3.26485,5.54941-4.79657,8.37945-.52246,.96532-1.06405,1.13573-2.12766,.95232-6.09468-1.05098-12.21228-1.96881-18.30847-3.01145-.95194-.16281-1.52532,.01808-2.17851,.70352-2.00112,2.09993-4.03694,4.17255-6.15962,6.14792-.81954,.76265-1.01563,1.50702-.84224,2.53849,.98262,5.84529,1.89308,11.70302,2.91978,17.54038,.25551,1.45274,.05457,2.32882-1.40045,3.05073-2.59025,1.28511-5.08727,2.77178-7.55282,4.28868-1.13453,.69801-1.91023,.70217-2.98498-.19569-4.60193-3.84449-9.31437-7.55652-13.93012-11.38485-.81228-.67373-1.45077-.79106-2.40044-.4058-2.7498,1.11552-5.60316,1.91102-8.53995,2.34666-1.03798,.15397-1.48874,.67129-1.84005,1.63441-2.00534,5.49746-4.15809,10.94186-6.10747,16.45848-.56288,1.59292-1.28125,2.35594-3.00171,2.04344-.66385-.12058-1.36792-.01965-2.44859-.01965Z"/><path class="cls-1" d="M92.64078,150.40723c-6.06469,.00057-12.13092-.07481-18.19308,.04895-1.70034,.03471-2.03963-.50006-1.92583-2.03595,.13788-1.86098-.04876-3.74476,.06115-5.60948,.07581-1.28627-.19344-1.76452-1.62804-1.73731-5.15958,.09784-10.32311,.0928-15.48294,.00164-1.35484-.02393-1.57901,.45302-1.52979,1.63475,.08585,2.06118-.03469,4.13084,.04713,6.19235,.04403,1.10929-.14595,1.54366-1.42933,1.53786-12.51623-.05669-25.03283-.04113-37.54928-.01922-.91147,.0016-1.35416-.10094-1.34588-1.22081,.05964-8.06498-.07004-16.13263,.08161-24.19527,.12067-6.41548,5.57795-11.65077,12.06004-11.75203,5.7407-.08969,11.48399-.04106,17.22584-.006,1.07514,.00656,1.59487-.05425,1.7643-1.43937,.78736-6.43684,5.94312-10.90997,12.41375-10.96291,3.99986-.03272,8.00031-.02819,12.00027-.00304,6.59217,.04145,11.73575,4.50841,12.52402,11.06144,.15835,1.31643,.65992,1.3477,1.65504,1.34224,5.54839-.03043,11.09712-.03444,16.64557-.0096,7.4454,.03335,12.75332,5.35097,12.78427,12.8341,.03121,7.54913-.05125,15.09931,.05278,22.64713,.02167,1.5716-.51137,1.73385-1.84427,1.71935-6.12848-.06668-12.2581-.02938-18.3873-.02881Zm-29.52136-37.17651c3.67388,0,7.34973-.07025,11.02071,.03306,1.56449,.04405,1.67238-.49188,1.25027-1.76784-.85027-2.57022-3.00446-4.39085-5.70549-4.43734-4.2527-.0732-8.50817-.06716-12.76125-.00797-2.77117,.03857-5.00054,1.89946-5.83225,4.54596-.37903,1.20604-.28814,1.71173,1.20069,1.66872,3.60642-.10419,7.21788-.03385,10.82731-.03459Z"/><path class="cls-1" d="M63.15296,199.97646c-10.06787,.00001-20.13575,.00702-30.20361-.00225-7.72255-.0071-13.03925-5.27979-13.05339-12.96324-.01758-9.55238,.02853-19.10507-.04327-28.65696-.01081-1.4383,.32658-1.80027,1.78101-1.79018,10.26107,.07123,20.52299,.06196,30.78426,.0073,1.27143-.00677,1.63842,.32688,1.57746,1.58847-.10579,2.18936,.01641,4.38894-.0509,6.58133-.02901,.94475,.27568,1.18399,1.19405,1.17714,5.42086-.04056,10.84235-.04268,16.26316,.0015,.94735,.00771,1.19781-.2821,1.173-1.19774-.06117-2.25736,.00339-4.51784-.0315-6.77632-.01344-.87009,.02486-1.37793,1.19272-1.37213,10.58391,.05257,21.16823,.04372,31.7523,.00915,.96406-.00316,1.16182,.30977,1.15878,1.20705-.03447,10.13313,.08056,20.26806-.07408,30.39901-.10056,6.58921-5.67104,11.743-12.44196,11.77502-10.32579,.04884-20.65199,.01281-30.97801,.01282Z"/><path class="cls-1" d="M66.35774,153.59768c.00079,1.67676-.04089,3.35499,.01832,5.02965,.02976,.84173-.23626,1.05276-1.07965,1.10001-5.13573,.28769-5.13391,.31368-5.13279-4.76706,.00048-2.19268,.03426-4.38622-.01926-6.5776-.02053-.84041,.23588-1.05286,1.07968-1.10016,5.13601-.28791,5.13454-.31393,5.13292,4.76738-.00017,.51593-.00002,1.03185,.00077,1.54778Z"/></svg>