<?xml version="1.0" encoding="UTF-8"?>
<svg version="1.1" xmlns="http://www.w3.org/2000/svg" width="1536" height="1024">
<path d="M0 0 C506.88 0 1013.76 0 1536 0 C1536 337.92 1536 675.84 1536 1024 C1029.12 1024 522.24 1024 0 1024 C0 686.08 0 348.16 0 0 Z " fill="#010101" transform="translate(0,0)"/>
<path d="M0 0 C1.43352212 0.00015908 2.86704998 0.00585132 4.30053711 0.01586914 C5.43041298 0.01799156 5.43041298 0.01799156 6.58311462 0.02015686 C8.99807646 0.02577163 11.41294687 0.03832656 13.82788086 0.05102539 C15.46134307 0.05603849 17.09480672 0.06060173 18.72827148 0.06469727 C22.74067671 0.07574585 26.75301326 0.09302033 30.76538086 0.11352539 C33.96995866 8.40228912 36.6846022 16.84760741 39.44897461 25.29125977 C41.34186039 31.02409062 43.33385257 36.59069437 45.76538086 42.11352539 C45.8755957 42.8013208 45.98581055 43.48911621 46.09936523 44.19775391 C46.57611966 46.25881392 46.57611966 46.25881392 48.48022461 47.05493164 C49.21370117 47.25989258 49.94717773 47.46485352 50.70288086 47.67602539 C51.5162793 47.91579102 52.32967773 48.15555664 53.16772461 48.40258789 C54.02495117 48.63719727 54.88217773 48.87180664 55.76538086 49.11352539 C61.70456846 50.79984699 67.22839224 52.62477898 72.75146484 55.41723633 C76.21270305 56.61392094 78.48503629 55.5094167 81.76538086 54.11352539 C81.76538086 53.45352539 81.76538086 52.79352539 81.76538086 52.11352539 C83.16244838 51.12437622 84.56823204 50.14539033 86.01391602 49.22875977 C88.90552522 47.38754554 91.66760878 45.36015161 94.45288086 43.36352539 C95.36154907 42.71806763 95.36154907 42.71806763 96.28857422 42.05957031 C99.21668171 39.97333697 102.11285491 37.8637556 104.94506836 35.64868164 C105.89639648 34.91520508 106.84772461 34.18172852 107.82788086 33.42602539 C108.66448242 32.7621582 109.50108398 32.09829102 110.36303711 31.41430664 C113.42448013 29.75664725 114.47393455 30.15148091 117.76538086 31.11352539 C119.98193359 32.43286133 119.98193359 32.43286133 122.19897461 34.09790039 C123.01301758 34.70375977 123.82706055 35.30961914 124.66577148 35.93383789 C125.50301758 36.57063477 126.34026367 37.20743164 127.20288086 37.86352539 C128.03625977 38.48485352 128.86963867 39.10618164 129.72827148 39.74633789 C131.35170984 40.96295415 132.96463673 42.19374886 134.56567383 43.43969727 C136.6861123 45.10187281 136.6861123 45.10187281 138.73461914 46.36547852 C140.42553711 47.50415039 140.42553711 47.50415039 142.76538086 50.11352539 C143.74625199 56.93428528 140.20972732 64.16808791 137.89038086 70.42602539 C131.8687774 84.04470402 131.8687774 84.04470402 131.76538086 98.11352539 C133.37983042 100.38026191 133.37983042 100.38026191 135.39038086 102.67602539 C140.09941536 108.38626002 144.44628412 114.47533191 147.76538086 121.11352539 C149.07732422 121.13858154 150.38926758 121.1636377 151.7409668 121.18945312 C156.60890453 121.2836321 161.47670307 121.38382733 166.34448242 121.48583984 C168.45122013 121.52914897 170.55799203 121.57082692 172.66479492 121.61083984 C175.69322005 121.66863966 178.72147371 121.73230635 181.74975586 121.79711914 C182.69155701 121.81383163 183.63335815 121.83054413 184.60369873 121.84776306 C185.48430969 121.86770828 186.36492065 121.8876535 187.2722168 121.90820312 C188.04498962 121.92374741 188.81776245 121.93929169 189.61395264 121.95530701 C191.7916281 122.11545564 193.69174851 122.42859301 195.76538086 123.11352539 C196.72265625 124.72070313 196.72265625 124.72070313 197.36303711 126.79711914 C197.60578369 127.55581299 197.84853027 128.31450684 198.09863281 129.09619141 C198.4596106 130.31133423 198.4596106 130.31133423 198.82788086 131.55102539 C199.084646 132.36692139 199.34141113 133.18281738 199.60595703 134.0234375 C200.34379433 136.38175202 201.05906708 138.74560324 201.76538086 141.11352539 C202.10053711 142.22985352 202.43569336 143.34618164 202.78100586 144.49633789 C203.27220974 146.14813133 203.75460954 147.80260889 204.22241211 149.46118164 C204.63398816 151.13247302 204.63398816 151.13247302 205.76538086 152.11352539 C206.14038086 154.39086914 206.14038086 154.39086914 205.76538086 157.11352539 C203.70288086 159.36743164 203.70288086 159.36743164 200.76538086 161.67602539 C199.97526611 162.30577271 199.97526611 162.30577271 199.16918945 162.94824219 C197.38375588 164.35851327 195.57851648 165.73906657 193.76538086 167.11352539 C193.09152344 167.62463867 192.41766602 168.13575195 191.72338867 168.66235352 C188.94941084 170.75859082 186.17170153 172.84902538 183.37475586 174.91455078 C180.30356146 177.18364233 177.30742082 179.47586907 174.41381836 181.96899414 C171.76538086 184.11352539 171.76538086 184.11352539 169.76538086 184.11352539 C169.93996826 184.97236328 170.11455566 185.83120117 170.29443359 186.71606445 C170.77120487 190.15554038 170.64291694 193.02591604 170.30053711 196.47290039 C168.86297339 208.76885295 168.86297339 208.76885295 172.10571289 220.24975586 C175.70778975 223.60931665 180.03472182 225.4088766 184.57592773 227.18774414 C188.03518578 228.65044558 191.03809937 230.70538136 194.14038086 232.80102539 C195.27492869 233.53414256 196.41032446 234.26594942 197.54663086 234.99633789 C202.02152339 237.93977448 206.41190185 240.99386647 210.76538086 244.11352539 C210.14186378 248.7679122 209.34917431 253.33303221 208.35522461 257.92211914 C208.08774414 259.1628418 207.82026367 260.40356445 207.54467773 261.68188477 C207.26688477 262.95870117 206.9890918 264.23551758 206.70288086 265.55102539 C206.41815279 266.86803452 206.13364562 268.18509143 205.84936523 269.50219727 C205.15687124 272.70644913 204.46214321 275.91019946 203.76538086 279.11352539 C199.97936612 279.78244117 196.24741989 280.29441153 192.41381836 280.57836914 C191.40689941 280.6542627 190.39998047 280.73015625 189.36254883 280.80834961 C187.76757568 280.92847412 187.76757568 280.92847412 186.14038086 281.05102539 C185.03968262 281.14399902 183.93898438 281.23697266 182.80493164 281.33276367 C177.50555382 281.77864869 172.23932478 282.15508385 166.92163086 282.26586914 C157.78463951 282.26674817 157.78463951 282.26674817 150.22241211 286.59399414 C148.44214928 289.69471682 147.12119686 292.80923131 145.76538086 296.11352539 C143.96069336 298.73071289 143.96069336 298.73071289 142.07788086 301.05102539 C141.50811523 301.77547852 140.93834961 302.49993164 140.35131836 303.24633789 C138.76538086 305.11352539 138.76538086 305.11352539 136.20288086 307.42602539 C133.68025098 312.14224648 135.42275614 317.13437453 136.76538086 322.11352539 C137.46938956 324.04348027 138.17597705 325.97273197 138.91601562 327.88916016 C140.52998887 332.11592365 141.98932677 336.39535885 143.45288086 340.67602539 C143.77321289 341.58288086 144.09354492 342.48973633 144.42358398 343.42407227 C147.76697007 353.25462537 147.76697007 353.25462537 146.76538086 358.11352539 C144.67211876 360.39890183 142.21720491 361.89364133 139.57788086 363.48852539 C138.10845226 364.42756852 136.63971213 365.36768976 135.17163086 366.30883789 C134.43170898 366.77322266 133.69178711 367.23760742 132.92944336 367.71606445 C130.89105837 369.03236812 128.93432124 370.4128637 126.98413086 371.85571289 C126.40687256 372.27933105 125.82961426 372.70294922 125.23486328 373.1394043 C123.66540682 374.29886425 122.1000349 375.46384716 120.53491211 376.62915039 C117.76538086 378.11352539 117.76538086 378.11352539 115.39428711 378.18383789 C111.48173315 376.59091102 108.2849165 374.22797996 104.89038086 371.73852539 C103.78122314 370.94128052 103.78122314 370.94128052 102.6496582 370.12792969 C98.88646865 367.4152404 95.15193563 364.66415774 91.42163086 361.90649414 C90.74213379 361.4048877 90.06263672 360.90328125 89.36254883 360.38647461 C88.07164862 359.43052449 86.78406536 358.47007488 85.50024414 357.50463867 C82.92772697 355.58935999 80.83102587 354.13540706 77.76538086 353.11352539 C71.61713069 354.14199391 64.92013497 356.60882401 59.76538086 360.11352539 C57.09763473 364.33745676 56.55804085 368.25342032 55.76538086 373.11352539 C55.05650559 374.79509031 54.34453738 376.47585713 53.58789062 378.13647461 C51.57551009 382.97359469 50.35017388 388.13522766 48.92749023 393.17016602 C48.67676758 394.03448242 48.42604492 394.89879883 48.16772461 395.78930664 C47.94592529 396.57217041 47.72412598 397.35503418 47.49560547 398.16162109 C46.76538086 400.11352539 46.76538086 400.11352539 44.76538086 402.11352539 C41.72631836 402.30883789 41.72631836 402.30883789 38.14038086 402.23852539 C36.95186523 402.22047852 35.76334961 402.20243164 34.53881836 402.18383789 C33.1659668 402.1490332 33.1659668 402.1490332 31.76538086 402.11352539 C32.14049805 401.62883789 32.51561523 401.14415039 32.90209961 400.64477539 C34.5499862 398.48633451 36.16456344 396.30709832 37.76538086 394.11352539 C38.22944336 393.47801758 38.69350586 392.84250977 39.17163086 392.18774414 C45.62128844 382.69023008 46.21914989 372.32210081 46.27709961 361.13305664 C46.29505081 359.83905441 46.31300201 358.54505219 46.33149719 357.21183777 C46.37852251 353.81062769 46.40863581 350.40948165 46.43493652 347.00805664 C46.46498514 343.52159982 46.51143025 340.03536294 46.55639648 336.54907227 C46.64188734 329.73734968 46.70947022 322.9255534 46.76538086 316.11352539 C47.36389359 315.86216324 47.96240631 315.61080109 48.57905579 315.3518219 C51.32667917 314.19486236 54.07141686 313.0312018 56.81616211 311.86743164 C58.22822937 311.27460388 58.22822937 311.27460388 59.66882324 310.6697998 C66.00243459 307.97708337 71.85788625 305.00366148 77.68334961 301.32836914 C79.76538086 300.11352539 79.76538086 300.11352539 81.76538086 300.11352539 C81.76538086 299.45352539 81.76538086 298.79352539 81.76538086 298.11352539 C83.42184561 297.09671552 85.0910837 296.10069649 86.76538086 295.11352539 C98.75420162 285.22741152 108.54247934 273.94658872 115.76538086 260.11352539 C116.21526367 259.26661133 116.66514648 258.41969727 117.12866211 257.54711914 C121.26482939 249.15953533 123.4963259 240.14554939 125.76538086 231.11352539 C125.95447021 230.44063477 126.14355957 229.76774414 126.33837891 229.07446289 C128.19695634 221.92365085 128.20532177 214.71378305 128.20288086 207.36352539 C128.20448212 206.33956665 128.20448212 206.33956665 128.20611572 205.29492188 C128.17857193 193.04830726 126.66988017 181.75743819 122.76538086 170.11352539 C122.53544434 169.42419922 122.30550781 168.73487305 122.06860352 168.0246582 C120.54096744 163.60283827 118.73606566 159.35988193 116.76538086 155.11352539 C116.48887695 154.50879395 116.21237305 153.9040625 115.92749023 153.28100586 C109.42917699 139.31990059 97.97952837 121.22059915 83.76538086 114.11352539 C83.76538086 113.45352539 83.76538086 112.79352539 83.76538086 112.11352539 C83.03319336 111.85055664 82.30100586 111.58758789 81.54663086 111.31665039 C78.74567515 110.10500101 76.68782048 108.70524319 74.26538086 106.86352539 C60.75928716 97.22490362 44.89042744 92.93077491 28.76538086 90.11352539 C28.01514648 89.97946289 27.26491211 89.84540039 26.49194336 89.70727539 C6.93153118 86.73607354 -14.68131909 91.35328032 -32.23461914 100.11352539 C-33.25362305 100.61432617 -33.25362305 100.61432617 -34.29321289 101.12524414 C-39.29050626 103.73850765 -43.88738072 106.8634126 -48.48461914 110.11352539 C-49.07525146 110.52876465 -49.66588379 110.94400391 -50.27441406 111.37182617 C-53.93958592 114.00884188 -57.09110678 116.8525983 -60.23461914 120.11352539 C-60.8340332 120.64333008 -61.43344727 121.17313477 -62.05102539 121.71899414 C-72.42276522 131.11620808 -82.03025067 145.85954628 -86.21118164 159.23852539 C-88.94756435 167.4279873 -88.94756435 167.4279873 -92.86743164 169.51586914 C-94.93080711 170.13066004 -97.00901515 170.69741517 -99.09790039 171.21899414 C-106.39085076 173.2988019 -111.71800148 177.72087325 -115.67211914 184.11352539 C-117.83055657 188.03092824 -119.45708269 191.96594033 -121.23461914 196.11352539 C-128.49461914 196.11352539 -135.75461914 196.11352539 -143.23461914 196.11352539 C-143.23461914 192.48352539 -143.23461914 188.85352539 -143.23461914 185.11352539 C-144.6838535 182.61712563 -144.6838535 182.61712563 -147.17211914 181.23852539 C-148.07704102 180.61333008 -148.98196289 179.98813477 -149.91430664 179.34399414 C-151.55786133 178.23991211 -151.55786133 178.23991211 -153.23461914 177.11352539 C-156.1146441 174.95949205 -158.95267421 172.75172097 -161.79711914 170.55102539 C-163.26499747 169.43009134 -164.73372739 168.31027145 -166.20336914 167.19165039 C-170.57012494 163.86169415 -174.91181209 160.50034003 -179.23461914 157.11352539 C-178.50038755 151.83674013 -176.97249941 147.0516902 -175.2487793 142.02490234 C-175.02367676 141.36707764 -174.79857422 140.70925293 -174.56665039 140.03149414 C-174.34187012 139.37713379 -174.11708984 138.72277344 -173.88549805 138.04858398 C-173.27074366 136.22092333 -172.69477706 134.38034818 -172.12133789 132.53930664 C-171.62053711 130.93635742 -171.62053711 130.93635742 -171.10961914 129.30102539 C-170.81829102 128.34583008 -170.52696289 127.39063477 -170.22680664 126.40649414 C-169.23461914 124.11352539 -169.23461914 124.11352539 -166.23461914 122.11352539 C-164.23277283 121.93598938 -164.23277283 121.93598938 -161.921875 122.03271484 C-160.61922951 122.07553337 -160.61922951 122.07553337 -159.29026794 122.11921692 C-158.35280228 122.15472153 -157.41533661 122.19022614 -156.44946289 122.22680664 C-154.4540832 122.26012041 -152.4586307 122.28928261 -150.46313477 122.31469727 C-147.32184156 122.35951341 -144.18900208 122.42528733 -141.05029297 122.5625 C-129.63505929 123.48158811 -129.63505929 123.48158811 -119.32919312 119.65234375 C-116.16204263 116.11439295 -114.09506753 112.16720514 -112.13127136 107.8737793 C-110.50362029 104.67847225 -108.01639571 102.3347885 -105.51196289 99.82446289 C-103.82787418 97.56871104 -103.46706277 95.91130145 -103.23461914 93.11352539 C-103.79605536 90.75331085 -103.79605536 90.75331085 -104.85961914 88.36352539 C-107.06209822 82.73920164 -108.77491188 77.05552563 -110.43701172 71.25561523 C-111.5321943 67.45174657 -112.69568856 63.71133417 -114.04711914 59.98852539 C-116.25192146 53.11007024 -116.25192146 53.11007024 -115.23461914 49.11352539 C-112.41065419 46.44929987 -109.25574723 44.41451063 -106.00268555 42.3112793 C-104.05109258 40.98919768 -102.19936827 39.57409948 -100.34008789 38.12524414 C-99.68016846 37.61638672 -99.02024902 37.1075293 -98.34033203 36.58325195 C-97.03678495 35.57486276 -95.74014284 34.55747308 -94.45117188 33.53051758 C-89.87459315 30.06228617 -89.87459315 30.06228617 -86.81347656 30.30737305 C-84.00659738 31.18480513 -82.01452188 32.32595614 -79.59008789 33.98461914 C-78.74897461 34.55889648 -77.90786133 35.13317383 -77.04125977 35.72485352 C-75.74478516 36.62880859 -75.74478516 36.62880859 -74.42211914 37.55102539 C-73.5384668 38.14979492 -72.65481445 38.74856445 -71.74438477 39.36547852 C-66.91585687 42.69511204 -66.91585687 42.69511204 -65.23461914 44.11352539 C-65.23461914 44.77352539 -65.23461914 45.43352539 -65.23461914 46.11352539 C-64.14793945 46.49444336 -64.14793945 46.49444336 -63.03930664 46.88305664 C-59.17887447 48.57670028 -56.20322701 51.1242403 -52.92993164 53.75024414 C-48.2675252 56.1084758 -44.36051053 54.44544247 -39.55102539 53.02758789 C-38.31223633 52.60219727 -37.07344727 52.17680664 -35.79711914 51.73852539 C-33.94280273 51.10817383 -33.94280273 51.10817383 -32.05102539 50.46508789 C-31.43259766 50.24191895 -30.81416992 50.01875 -30.17700195 49.78881836 C-28.8255764 49.31897886 -27.45808452 48.89394746 -26.08129883 48.50463867 C-22.30229096 47.34471955 -20.65428588 46.78160473 -18.49243164 43.34008789 C-18.11860352 42.15157227 -17.74477539 40.96305664 -17.35961914 39.73852539 C-17.13894775 39.07457764 -16.91827637 38.41062988 -16.69091797 37.7265625 C-16.16986055 36.15652746 -15.66197681 34.58208884 -15.16381836 33.00463867 C-13.40443356 27.53048346 -11.492117 22.10719905 -9.61077881 16.67401123 C-8.92553879 14.68594672 -8.24815589 12.69536618 -7.57299805 10.70385742 C-7.1558252 9.47908691 -6.73865234 8.25431641 -6.30883789 6.99243164 C-5.74555786 5.33062866 -5.74555786 5.33062866 -5.17089844 3.63525391 C-3.87163535 0.13588274 -3.87163535 0.13588274 0 0 Z " fill="#38ADD4" transform="translate(280.234619140625,283.886474609375)"/>
<path d="M0 0 C1.16313721 -0.00999023 2.32627441 -0.01998047 3.5246582 -0.03027344 C14.55575967 0.07882965 25.06136763 1.86329358 34.875 7.0625 C35.87551392 7.57973633 35.87551392 7.57973633 36.89624023 8.10742188 C51.09522335 15.6747785 60.71868003 25.64249045 68.8125 39.4375 C69.33972656 40.30632812 69.86695313 41.17515625 70.41015625 42.0703125 C81.62731022 62.20955058 83.46290358 90.31607796 78.375 112.625 C74.89687142 124.76118436 69.75956366 137.54015527 61.8125 147.4375 C61.1525 147.4375 60.4925 147.4375 59.8125 147.4375 C59.8125 148.4275 59.8125 149.4175 59.8125 150.4375 C58.16796875 152.2265625 58.16796875 152.2265625 56 154.0625 C54.93845703 154.97902344 54.93845703 154.97902344 53.85546875 155.9140625 C51.8125 157.4375 51.8125 157.4375 48.8125 158.4375 C48.8125 159.0975 48.8125 159.7575 48.8125 160.4375 C39.59638522 167.66710241 28.95242196 171.28717644 17.8125 174.4375 C17.20067871 174.62086914 16.58885742 174.80423828 15.95849609 174.99316406 C1.7765584 177.92958347 -16.77587079 176.98768184 -30.1875 171.4375 C-30.82896973 171.17437012 -31.47043945 170.91124023 -32.13134766 170.64013672 C-49.69746935 163.22687256 -63.81962065 150.76330147 -72.1875 133.4375 C-72.6928125 132.39851562 -73.198125 131.35953125 -73.71875 130.2890625 C-77.6398135 121.73576222 -79.73744923 113.71156569 -81.1875 104.4375 C-81.4659375 102.76880859 -81.4659375 102.76880859 -81.75 101.06640625 C-83.17274452 89.26524854 -82.6385811 77.04862132 -80.1875 65.4375 C-79.93097656 64.15230469 -79.67445312 62.86710937 -79.41015625 61.54296875 C-76.17105084 46.41507978 -68.18279489 30.66878093 -56.1875 20.4375 C-55.5275 20.4375 -54.8675 20.4375 -54.1875 20.4375 C-53.8575 19.4475 -53.5275 18.4575 -53.1875 17.4375 C-51.04675144 15.84076034 -48.94841117 14.40512393 -46.6875 13 C-46.04603027 12.59821533 -45.40456055 12.19643066 -44.74365234 11.7824707 C-40.0292992 8.87324824 -35.45005679 6.23060572 -30.1875 4.4375 C-29.15753906 4.06753906 -28.12757812 3.69757813 -27.06640625 3.31640625 C-18.05400389 0.56023241 -9.40953398 0.04715625 0 0 Z " fill="#3B55B7" transform="translate(1326.1875,409.5625)"/>
<path d="M0 0 C0.96898727 -0.0066568 1.93797455 -0.0133136 2.93632507 -0.02017212 C4.98121247 -0.03027002 7.02613262 -0.03499003 9.07104492 -0.03466797 C12.17878307 -0.03903379 15.28509154 -0.07536405 18.39257812 -0.11328125 C20.38671394 -0.11915169 22.38085644 -0.12311956 24.375 -0.125 C25.29404617 -0.13937103 26.21309235 -0.15374207 27.1599884 -0.16854858 C36.3895506 -0.1040774 43.45708683 3.12776558 50.15625 9.42578125 C54.40269581 14.11316726 56.10594716 18.25576821 55.98046875 24.59765625 C55.96693359 25.48799561 55.95339844 26.37833496 55.93945312 27.2956543 C55.91334961 28.30559448 55.91334961 28.30559448 55.88671875 29.3359375 C56.74330078 29.32594475 56.74330078 29.32594475 57.6171875 29.31575012 C63.58734479 29.2491242 69.55739558 29.20402426 75.52783203 29.17114258 C77.7528106 29.15610238 79.97775976 29.13566504 82.20263672 29.10961914 C85.40990481 29.07302615 88.6167792 29.056163 91.82421875 29.04296875 C92.81099609 29.02748489 93.79777344 29.01200104 94.81445312 28.99604797 C103.42120525 28.99397408 109.96279517 30.95066361 116.88671875 36.3359375 C123.31082782 43.20824023 126.00954105 49.36436789 126.01611328 58.63330078 C126.01926544 59.9078714 126.0224176 61.18244202 126.02566528 62.49563599 C126.02387572 63.88250768 126.02182482 65.26937905 126.01953125 66.65625 C126.02020502 68.08063778 126.02117565 69.50502545 126.02243042 70.92941284 C126.023903 73.91014708 126.02176631 76.89085129 126.01708984 79.87158203 C126.01138244 83.69615621 126.01468071 87.52066037 126.02066231 91.34523201 C126.02427094 94.28425629 126.02312812 97.22326389 126.02053452 100.16228867 C126.01986662 101.57292565 126.02068889 102.98356414 126.02301407 104.39419937 C126.0255466 106.36192039 126.02100386 108.32964671 126.01611328 110.29736328 C126.01531769 111.41781036 126.01452209 112.53825745 126.01370239 113.69265747 C125.88671875 116.3359375 125.88671875 116.3359375 124.88671875 118.3359375 C94.19671875 118.3359375 63.50671875 118.3359375 31.88671875 118.3359375 C31.88671875 111.0759375 31.88671875 103.8159375 31.88671875 96.3359375 C19.34671875 96.3359375 6.80671875 96.3359375 -6.11328125 96.3359375 C-6.11328125 103.5959375 -6.11328125 110.8559375 -6.11328125 118.3359375 C-18.22170401 118.35848707 -30.33011294 118.37685174 -42.4385519 118.38774967 C-48.06036087 118.39297886 -53.68215478 118.40007716 -59.30395508 118.41137695 C-64.72446402 118.42220456 -70.14495845 118.42821406 -75.56547737 118.43081474 C-77.6384307 118.43266922 -79.71138319 118.43629027 -81.78433037 118.44166756 C-84.67712018 118.4488763 -87.56984921 118.44992851 -90.46264648 118.44946289 C-91.32866989 118.45305817 -92.1946933 118.45665344 -93.08695984 118.46035767 C-98.99922909 118.44998966 -98.99922909 118.44998966 -100.11328125 117.3359375 C-100.22838341 115.36983265 -100.27296273 113.39957081 -100.2902832 111.43017578 C-100.30311844 110.16440704 -100.31595367 108.89863831 -100.32917786 107.59451294 C-100.33735132 106.19842928 -100.34479388 104.80234118 -100.3515625 103.40625 C-100.35563803 102.70378017 -100.35971355 102.00131035 -100.36391258 101.27755356 C-100.38481363 97.54962201 -100.39909001 93.82172755 -100.40844727 90.09375 C-100.41943766 86.2663707 -100.45373836 82.4395848 -100.49361897 78.61241341 C-100.519964 75.65242545 -100.52815545 72.69257393 -100.53172874 69.7324791 C-100.53655963 68.32365855 -100.54807213 66.91484264 -100.56676674 65.50613785 C-100.69555286 55.14602054 -100.07458344 45.45746093 -92.92578125 37.3984375 C-87.43457123 32.45279046 -79.94795514 29.20214387 -72.55004883 29.22241211 C-71.62932083 29.22248764 -70.70859283 29.22256317 -69.75996399 29.22264099 C-68.769254 29.22780228 -67.77854401 29.23296356 -66.7578125 29.23828125 C-65.74103928 29.2396962 -64.72426605 29.24111115 -63.67668152 29.24256897 C-60.42635161 29.24817043 -57.17609037 29.26072318 -53.92578125 29.2734375 C-51.72330829 29.27845231 -49.52083424 29.28301525 -47.31835938 29.28710938 C-41.91664321 29.29814033 -36.51496713 29.31487988 -31.11328125 29.3359375 C-31.1277832 28.73555664 -31.14228516 28.13517578 -31.15722656 27.51660156 C-31.16850586 26.71963867 -31.17978516 25.92267578 -31.19140625 25.1015625 C-31.2059082 24.31555664 -31.22041016 23.52955078 -31.23535156 22.71972656 C-30.93045007 16.76561015 -28.2949768 11.51763305 -24.11328125 7.3359375 C-16.36740966 1.63019911 -9.50173719 0.02285924 0 0 Z " fill="#3B55B6" transform="translate(199.11328125,459.6640625)"/>
<path d="M0 0 C0.78186676 0.00359528 1.56373352 0.00719055 2.36929321 0.01089478 C3.18873917 0.01074875 4.00818512 0.01060272 4.85246277 0.01045227 C7.57416385 0.01115164 10.29579737 0.01894515 13.01748657 0.02676392 C14.89935773 0.02862801 16.78122938 0.03005195 18.6631012 0.03105164 C23.62631561 0.0348775 28.58950096 0.04470836 33.55270386 0.05575562 C38.61322639 0.06596827 43.67375359 0.07054894 48.73428345 0.07559204 C58.67114726 0.08633057 68.60798183 0.10392792 78.54483032 0.12442017 C78.54483032 6.06442017 78.54483032 12.00442017 78.54483032 18.12442017 C91.08483032 18.12442017 103.62483032 18.12442017 116.54483032 18.12442017 C116.54483032 12.18442017 116.54483032 6.24442017 116.54483032 0.12442017 C127.47979872 0.10186955 138.41475178 0.08350532 149.34973812 0.07260799 C154.4267405 0.06737907 159.50372621 0.06028124 164.58071899 0.04898071 C169.47603584 0.03815218 174.37133661 0.03214341 179.26666451 0.02954292 C181.13865983 0.02768861 183.01065423 0.02406789 184.88264275 0.01869011 C187.49523732 0.01148012 190.10776459 0.01042921 192.72036743 0.01089478 C193.50223419 0.0072995 194.28410095 0.00370422 195.08966064 0 C200.43077816 0.010368 200.43077816 0.010368 201.54483032 1.12442017 C201.64985424 3.41826342 201.68340754 5.71539067 201.69009399 8.0116272 C201.69345261 8.73204697 201.69681122 9.45246674 201.70027161 10.19471741 C201.70981514 12.59057312 201.71172691 14.9863591 201.71279907 17.38223267 C201.7160111 19.04555287 201.71937513 20.70887278 201.72288513 22.37219238 C201.72888616 25.8677333 201.73072422 29.36324946 201.73013306 32.85879517 C201.73003179 37.32758129 201.7436427 41.79620725 201.76090527 46.26495552 C201.77205655 49.70516683 201.77405124 53.14533994 201.77352333 56.58556747 C201.77470032 58.23211083 201.77910629 59.87865527 201.7868557 61.52518082 C201.79671154 63.83718073 201.79375488 66.14883992 201.78775024 68.46084595 C201.78917526 69.7746524 201.79060028 71.08845886 201.79206848 72.44207764 C201.19693578 81.30592959 197.71316633 88.49645332 191.16983032 94.43692017 C185.87263656 98.99041924 180.28165775 100.49714021 173.43037415 100.52555847 C172.40905631 100.53575348 172.40905631 100.53575348 171.36710578 100.54615444 C169.10416695 100.56502112 166.84177423 100.56269659 164.57876587 100.56021118 C162.94865225 100.56919535 161.31854499 100.57940511 159.68844604 100.59074402 C155.27300634 100.61718161 150.85774119 100.62427484 146.44222999 100.62619138 C143.68002823 100.62832759 140.9178705 100.63473943 138.1556797 100.64268303 C128.50908224 100.67041608 118.86260891 100.68269114 109.2159729 100.68032837 C100.24024344 100.6785267 91.26505527 100.71017497 82.28946275 100.75755936 C74.56945823 100.79685503 66.84963014 100.81287717 59.12952644 100.81096214 C54.52478821 100.81019919 49.9205313 100.81864068 45.31589317 100.85049629 C40.98259248 100.87965793 36.65022933 100.8796985 32.31689453 100.8579464 C30.73270604 100.85482334 29.14845795 100.86181165 27.56437111 100.88002777 C17.03348629 100.99321932 9.68657187 99.65603634 1.68239594 92.44700146 C-5.5265453 85.24990059 -6.87473659 75.52301338 -6.94012737 65.77186775 C-6.93384215 63.40733003 -6.90798326 61.04349184 -6.88095093 58.67910767 C-6.87601817 57.01571038 -6.87272507 55.3523075 -6.87098694 53.68890381 C-6.86339648 50.22777162 -6.84297515 46.76706037 -6.81185913 43.30606079 C-6.77197652 38.8616615 -6.75419531 34.41753283 -6.74454975 29.97297478 C-6.73461128 25.729149 -6.71473014 21.48538951 -6.69345093 17.24160767 C-6.69005518 16.4304739 -6.68665943 15.61934013 -6.68316078 14.78362656 C-6.6716452 12.50505277 -6.65314168 10.22665459 -6.63217163 7.94815063 C-6.62232742 6.65118256 -6.61248322 5.35421448 -6.6023407 4.01794434 C-6.35065438 -0.93045128 -4.45686123 0.00865151 0 0 Z " fill="#3B54B7" transform="translate(114.45516967773438,585.8755798339844)"/>
<path d="M0 0 C12.87 0 25.74 0 39 0 C48.73134328 26.76119403 48.73134328 26.76119403 52.7265625 40.12109375 C53.62365922 42.98144501 54.68037108 45.73787321 55.81640625 48.51171875 C58.60350385 55.36430957 60.93273047 62.3738076 63.3125 69.375 C64.29446643 72.25168058 65.27813111 75.12777966 66.26171875 78.00390625 C66.50128296 78.70523178 66.74084717 79.40655731 66.9876709 80.12913513 C68.83567953 85.53468834 70.72093992 90.92643582 72.625 96.3125 C75.87714163 105.51963024 78.9418011 114.7882317 81.98095703 124.06762695 C82.34431152 125.16937256 82.70766602 126.27111816 83.08203125 127.40625 C83.40405518 128.38916016 83.7260791 129.37207031 84.05786133 130.38476562 C84.89450277 132.70715564 85.88423513 134.80445331 87 137 C87.6925414 139.32578488 88.35466922 141.66067594 89 144 C89.9770274 147.21558592 90.98846174 150.4201263 92 153.625 C92.26039063 154.45773437 92.52078125 155.29046875 92.7890625 156.1484375 C93.82553296 159.43582865 94.85535643 162.65456832 96.1875 165.8359375 C97 168 97 168 97 172 C85.45 172 73.9 172 62 172 C59.34014188 165.35035471 56.96788587 158.96169539 55 152.125 C53.03845268 145.42668379 50.98741075 138.7976638 48.6640625 132.21484375 C48 130 48 130 48 127 C29.19 127 10.38 127 -9 127 C-9.66 130.3 -10.32 133.6 -11 137 C-11.65314857 139.29835239 -12.34740262 141.58566868 -13.09375 143.85546875 C-13.48433594 145.05494141 -13.87492188 146.25441406 -14.27734375 147.49023438 C-14.68082031 148.71033203 -15.08429687 149.93042969 -15.5 151.1875 C-16.30305685 153.63900423 -17.10516997 156.09081784 -17.90625 158.54296875 C-18.26009766 159.61571045 -18.61394531 160.68845215 -18.97851562 161.79370117 C-20.05554029 165.17433333 -21.02527581 168.58846534 -22 172 C-33.22 172 -44.44 172 -56 172 C-54.87483206 164.12382445 -54.87483206 164.12382445 -53.9140625 161.1328125 C-53.70523438 160.47410156 -53.49640625 159.81539062 -53.28125 159.13671875 C-53.0646875 158.47285156 -52.848125 157.80898438 -52.625 157.125 C-52.41617188 156.46886719 -52.20734375 155.81273437 -51.9921875 155.13671875 C-50.66632466 150.98935511 -49.29198184 146.85832446 -47.91113281 142.72900391 C-46.99853348 139.99560752 -46.09060777 137.26068046 -45.18351746 134.52545166 C-39.7135123 118.03450189 -34.19797617 101.56021838 -28.5625 85.125 C-28.3178299 84.41063782 -28.07315979 83.69627563 -27.82107544 82.96026611 C-24.96113901 74.61519441 -22.05063259 66.29209956 -19.05078125 57.99609375 C-17.8322515 54.52169851 -16.77015433 51.01873286 -15.7421875 47.484375 C-14.28771495 42.61571952 -12.62337682 37.8143656 -11 33 C-10.39504432 31.1877632 -9.79089303 29.3752577 -9.1875 27.5625 C-6.125 18.375 -3.0625 9.1875 0 0 Z " fill="#3C56B8" transform="translate(582,411)"/>
<path d="M0 0 C35.64 0 71.28 0 108 0 C108 9.57 108 19.14 108 29 C83.58 29 59.16 29 34 29 C34 42.53 34 56.06 34 70 C53.8 70 73.6 70 94 70 C94 78.91 94 87.82 94 97 C74.2 97 54.4 97 34 97 C34 111.85 34 126.7 34 142 C59.41 142 84.82 142 111 142 C111 151.57 111 161.14 111 171 C74.37 171 37.74 171 0 171 C0 114.57 0 58.14 0 0 Z " fill="#3B55B8" transform="translate(980,412)"/>
<path d="M0 0 C0.6084375 0.4846875 1.216875 0.969375 1.84375 1.46875 C1.365739 6.50698596 -1.09364907 9.60751391 -4.03125 13.53125 C-4.47855469 14.14291016 -4.92585937 14.75457031 -5.38671875 15.38476562 C-6.63404178 17.0864969 -7.89208837 18.77950478 -9.15625 20.46875 C-9.75695312 21.27183594 -10.35765625 22.07492187 -10.9765625 22.90234375 C-11.36585938 23.41925781 -11.75515625 23.93617188 -12.15625 24.46875 C-17.10197022 22.68578202 -21.10315331 19.95546279 -25.4375 17.02734375 C-28.10083582 15.50051761 -30.13587829 14.86818322 -33.15625 14.46875 C-33.15625 13.80875 -33.15625 13.14875 -33.15625 12.46875 C-33.74792969 12.40816406 -34.33960938 12.34757812 -34.94921875 12.28515625 C-41.71744301 11.56748157 -41.71744301 11.56748157 -44.65625 10.90625 C-53.91893756 9.28527968 -63.35770234 10.98766574 -71.47265625 15.859375 C-75.25560645 18.86046284 -77.37392457 21.57921609 -78.15625 26.46875 C-78.31819973 31.84548119 -77.29399935 34.87837544 -73.64819336 39.0234375 C-71.22233341 41.37347692 -68.45000541 42.94826994 -65.46875 44.46875 C-64.82663574 44.80487305 -64.18452148 45.14099609 -63.52294922 45.48730469 C-56.98525989 48.77881167 -50.1498267 50.97830129 -43.18359375 53.16796875 C-39.43111998 54.35237281 -35.89361577 55.78961501 -32.34375 57.48828125 C-29.56532813 58.73360962 -26.71286047 59.70035112 -23.84375 60.71875 C-10.97966597 65.64797846 -0.27283872 73.52119643 5.78125 86.09375 C7.50256474 90.27573614 8.60832933 93.91728377 8.84375 98.46875 C8.89402344 99.41234375 8.94429687 100.3559375 8.99609375 101.328125 C9.43668636 116.06154173 5.93922469 128.49721192 -4.10546875 139.62890625 C-6.03974088 141.41408641 -8.00292988 142.95625158 -10.15625 144.46875 C-11.27966797 145.26539063 -11.27966797 145.26539063 -12.42578125 146.078125 C-18.90850496 150.30917569 -25.68975981 152.56535737 -33.15625 154.46875 C-33.83848633 154.64752686 -34.52072266 154.82630371 -35.22363281 155.01049805 C-40.79103855 156.37678859 -46.05762015 156.81894618 -51.78125 156.78125 C-52.64790283 156.77778564 -53.51455566 156.77432129 -54.4074707 156.77075195 C-76.77366343 156.39794775 -98.43474844 147.29945046 -115.98046875 133.73046875 C-118.15625 131.46875 -118.15625 131.46875 -118.15625 127.46875 C-117.01049805 125.59350586 -117.01049805 125.59350586 -115.41796875 123.68359375 C-114.84498047 122.98814453 -114.27199219 122.29269531 -113.68164062 121.57617188 C-113.07513672 120.86009766 -112.46863281 120.14402344 -111.84375 119.40625 C-111.24884766 118.68630859 -110.65394531 117.96636719 -110.04101562 117.22460938 C-107.51437912 114.1841764 -104.98821156 111.23072112 -102.15625 108.46875 C-99.3051895 109.44625646 -97.2049747 110.42972094 -94.83984375 112.32421875 C-87.82382165 117.9309089 -79.86924239 122.25543172 -71.15625 124.46875 C-70.42535156 124.67242188 -69.69445312 124.87609375 -68.94140625 125.0859375 C-56.91649161 128.00713141 -43.22203656 128.02767284 -32.28125 121.84375 C-28.34061726 117.43951341 -26.41188781 112.62341154 -25.71875 106.78125 C-26.5625751 100.39228852 -29.32685329 96.7585218 -34.22265625 92.83984375 C-42.19601599 87.18600685 -51.97282291 84.38205538 -61.05859375 81.02734375 C-65.10073985 79.53261998 -69.13214252 78.01135769 -73.15625 76.46875 C-74.09549316 76.11127686 -74.09549316 76.11127686 -75.05371094 75.74658203 C-89.69164573 70.10140707 -103.30995027 61.54652214 -110.1484375 46.9609375 C-110.48101563 46.13851562 -110.81359375 45.31609375 -111.15625 44.46875 C-111.52363281 43.56898438 -111.89101563 42.66921875 -112.26953125 41.7421875 C-113.41617823 37.50919116 -113.49805567 33.58529552 -113.46875 29.21875 C-113.46456055 28.3740918 -113.46037109 27.52943359 -113.45605469 26.65917969 C-113.28774682 17.36643672 -111.10251196 10.31454484 -106.15625 2.46875 C-105.49625 2.46875 -104.83625 2.46875 -104.15625 2.46875 C-103.91003906 1.88996094 -103.66382813 1.31117188 -103.41015625 0.71484375 C-98.53332058 -8.02092108 -88.07830302 -13.53449643 -78.83349609 -16.29785156 C-50.61720341 -23.80339884 -22.85923689 -17.48059292 0 0 Z " fill="#3B55B7" transform="translate(947.15625,428.53125)"/>
<path d="M0 0 C0.62422852 0.2779541 1.24845703 0.5559082 1.89160156 0.84228516 C9.59078534 4.4000834 16.92722651 9.03689285 23 15 C23 15.66 23 16.32 23 17 C22.34 17 21.68 17 21 17 C20.78601563 17.66386719 20.57203125 18.32773437 20.3515625 19.01171875 C18.53640638 23.02499746 16.01827506 26.30714157 13.375 29.8125 C12.859375 30.50537109 12.34375 31.19824219 11.8125 31.91210938 C10.54657074 33.61173663 9.27394735 35.30637435 8 37 C4.24373126 35.63101876 1.15627221 33.86360572 -2.1875 31.6875 C-7.36094668 28.6269709 -12.405635 26.68544812 -18.1875 25.0625 C-19.29097778 24.74575317 -19.29097778 24.74575317 -20.41674805 24.42260742 C-30.55373204 21.75974102 -39.33814839 22.93381535 -49 27 C-52.88205624 29.50729771 -55.44388084 32.16582125 -58 36 C-58.84867862 40.22837224 -58.83815408 44.20302375 -56.99609375 48.15234375 C-53.51519045 52.74204653 -48.96771078 55.30393764 -43.8828125 57.8125 C-43.18628571 58.15822052 -42.48975891 58.50394104 -41.77212524 58.86013794 C-32.80014017 63.20250364 -23.39211215 66.44180848 -13.98535156 69.70361328 C-0.39686516 74.44371823 13.64155866 80.61053731 22 93 C22.38414062 93.53882813 22.76828125 94.07765625 23.1640625 94.6328125 C29.79537475 104.88987821 29.10082464 119.50529162 27.5 131.1875 C24.6893307 142.78151086 16.18370497 152.87811778 6.23291016 159.10595703 C-13.51555054 170.70748018 -35.80346972 171.59338747 -57.7109375 166.203125 C-63.39688957 164.67585474 -68.72944134 162.62320935 -74 160 C-74.77214844 159.62101563 -75.54429687 159.24203125 -76.33984375 158.8515625 C-84.53223162 154.56099732 -91.82682398 148.79272668 -99 143 C-97.25731793 139.03935893 -94.85325271 135.25563451 -92 132 C-91.34 132 -90.68 132 -90 132 C-89.73445312 131.41734375 -89.46890625 130.8346875 -89.1953125 130.234375 C-87.96697004 127.93825772 -86.59685061 126.19643982 -84.875 124.25 C-84.33617187 123.63640625 -83.79734375 123.0228125 -83.2421875 122.390625 C-82.83226562 121.93171875 -82.42234375 121.4728125 -82 121 C-78.72068984 122.55133642 -75.73070072 124.40359133 -72.6875 126.375 C-71.71039062 126.99761719 -70.73328125 127.62023437 -69.7265625 128.26171875 C-68.19648958 129.23719504 -66.6685349 130.21608168 -65.1484375 131.20703125 C-52.36065594 139.11277798 -35.51753923 141.06875116 -20.875 138.25 C-15.40799283 136.72965134 -11.50289814 134.34864974 -8.625 129.375 C-6.02142745 123.53602557 -6.1410482 117.79159335 -8 111.75 C-16.31856023 100.31197968 -32.83484793 96.33208113 -45.625 92 C-63.04909823 86.03808082 -80.76179704 78.33744975 -89.984375 61.3515625 C-94.81790864 50.16007307 -95.05093736 36.02284386 -90.75 24.5625 C-89.88032523 22.68583338 -88.97115207 20.8262189 -88 19 C-87.443125 17.9275 -86.88625 16.855 -86.3125 15.75 C-76.8447423 4.4910449 -64.27279522 -4.0611186 -49.40722656 -5.79199219 C-32.16558993 -7.28183746 -15.97383277 -7.12261653 0 0 Z " fill="#3B55B8" transform="translate(786,416)"/>
<path d="M0 0 C12.86510538 9.69288762 18.77868727 22.46786497 21.33984375 38.0703125 C23.91419707 57.18400429 22.29880131 78.10227868 10.875 94.125 C6.55121015 99.79471665 6.55121015 99.79471665 4 102 C3.34 102 2.68 102 2 102 C2 102.66 2 103.32 2 104 C0.08588443 104.98414433 -1.8313967 105.96213349 -3.75 106.9375 C-4.81734375 107.48277344 -5.8846875 108.02804687 -6.984375 108.58984375 C-16.34364052 112.96639149 -30.5088178 112.6637274 -40.1875 109.4375 C-53.41648139 103.50512866 -61.50627763 92.67481055 -66.76245117 79.53076172 C-74.05806961 59.97101278 -72.39845171 37.01026509 -63.9375 18.0625 C-57.76844694 6.28183844 -48.61045736 -1.40236757 -36.125 -5.3125 C-23.56821238 -8.60213765 -11.07037048 -7.20452682 0 0 Z " fill="#010101" transform="translate(1350,445)"/>
<path d="M0 0 C43.56 0 87.12 0 132 0 C132 9.57 132 19.14 132 29 C116.16 29 100.32 29 84 29 C84 75.86 84 122.72 84 171 C72.78 171 61.56 171 50 171 C50 124.14 50 77.28 50 29 C33.5 29 17 29 0 29 C0 19.43 0 9.86 0 0 Z " fill="#3A54B6" transform="translate(1105,412)"/>
<path d="M0 0 C0.66 0 1.32 0 2 0 C2.43699219 1.63582031 2.43699219 1.63582031 2.8828125 3.3046875 C5.06381927 11.36457681 7.37296421 19.34387651 10.0625 27.25 C12.62229827 34.77591999 14.86073949 42.3400672 17 50 C19.475 58.415 19.475 58.415 22 67 C8.47 67 -5.06 67 -19 67 C-14.75 52.9375 -14.75 52.9375 -13.43652344 48.60522461 C-11.10888653 40.87369268 -8.92709818 33.12364663 -6.90332031 25.30688477 C-6.04338019 22.15880668 -5.04233091 19.09146479 -4 16 C-3.62490862 14.64295205 -3.26588495 13.28126547 -2.9296875 11.9140625 C-2.66865234 10.86025391 -2.66865234 10.86025391 -2.40234375 9.78515625 C-2.22832031 9.07230469 -2.05429687 8.35945313 -1.875 7.625 C-1.69324219 6.88894531 -1.51148438 6.15289062 -1.32421875 5.39453125 C-0.88064438 3.59688777 -0.44001734 1.79851746 0 0 Z " fill="#010103" transform="translate(600,443)"/>
<path d="M0 0 C2.1577134 0.00849876 4.31276279 -0.02028195 6.47021484 -0.05200195 C14.95596481 -0.09457404 22.70681822 0.28851849 29.29443359 6.25854492 C30.29443359 8.44604492 30.29443359 8.44604492 31.29443359 15.44604492 C12.48443359 15.44604492 -6.32556641 15.44604492 -25.70556641 15.44604492 C-24.50556641 7.04604492 -24.50556641 7.04604492 -20.70556641 3.44604492 C-13.84998999 -0.02374406 -7.5645278 -0.04542488 0 0 Z " fill="#030306" transform="translate(208.70556640625,473.553955078125)"/>
<path d="M0 0 C5.61 0 11.22 0 17 0 C17 7.92 17 15.84 17 24 C11.39 24 5.78 24 0 24 C0 16.08 0 8.16 0 0 Z " fill="#36ACD5" transform="translate(204,568)"/>
<path d="M0 0 C0.66 0 1.32 0 2 0 C2.33 1.98 2.66 3.96 3 6 C1.02 6.99 1.02 6.99 -1 8 C-0.67 5.36 -0.34 2.72 0 0 Z " fill="#0F1633" transform="translate(600,443)"/>
</svg>
