<!DOCTYPE svg PUBLIC "-//W3C//DTD SVG 1.1//EN" "http://www.w3.org/Graphics/SVG/1.1/DTD/svg11.dtd">
<!-- Uploaded to: SVG Repo, www.svgrepo.com, Transformed by: SVG Repo Mixer Tools -->
<svg fill="#7c8db5" version="1.1" id="Capa_1" xmlns="http://www.w3.org/2000/svg" xmlns:xlink="http://www.w3.org/1999/xlink" width="800px" height="800px" viewBox="0 0 423.18 423.18" xml:space="preserve">
<g id="SVGRepo_bgCarrier" stroke-width="0"/>
<g id="SVGRepo_tracerCarrier" stroke-linecap="round" stroke-linejoin="round"/>
<g id="SVGRepo_iconCarrier"> <g> <g> <g> <path d="M299.736,352.75h-46.237v-45.32h46.237v-30H30v-214h352.996v120.2h23.909c2.104,0,4.146,0.285,6.091,0.81V53.43 c0-11.046-8.953-20-20-20H20c-11.047,0-20,8.954-20,20v234c0,11.046,8.953,20,20,20h139.498v45.32h-54.283 c-10.201,0-18.5,8.299-18.5,18.5s8.299,18.5,18.5,18.5h198.74c-2.655-3.792-4.221-8.401-4.221-13.372V352.75H299.736z"/> <path d="M354.998,146.368V91.36c0-2.761-2.238-5-5-5h-287c-2.762,0-5,2.239-5,5v55.009c0,2.761,2.238,5,5,5h287 C352.76,151.368,354.998,149.129,354.998,146.368z"/> <path d="M353.965,183.63v-9.409c0-2.19-1.774-3.966-3.967-3.966h-64.719c-2.189,0-3.967,1.775-3.967,3.966v76.333 c0,2.19,1.775,3.968,3.967,3.968h14.455V207c0-12.887,10.482-23.37,23.369-23.37H353.965L353.965,183.63z"/> <path d="M62.998,170.255c-2.189,0-3.967,1.775-3.967,3.966v76.333c0,2.19,1.777,3.968,3.967,3.968h188.781 c2.189,0,3.965-1.774,3.965-3.968v-76.333c0-2.19-1.773-3.966-3.965-3.966H62.998z"/> <path d="M409.81,193.63h-83.8c-7.372,0-13.37,5.998-13.37,13.37v169.378c0,7.372,5.998,13.371,13.37,13.371h83.8 c7.372,0,13.37-5.999,13.37-13.371V207C423.18,199.628,417.182,193.63,409.81,193.63z M367.91,380.156 c-3.141,0-5.686-2.544-5.686-5.683c0-3.138,2.545-5.683,5.686-5.683c3.137,0,5.682,2.545,5.682,5.683 C373.592,377.612,371.047,380.156,367.91,380.156z M414.266,362.455h-92.711V220.924h92.711V362.455z"/> <path d="M333.948,306.947h67.924c0.936,0,1.691-0.758,1.691-1.692v-27.13c0-0.938-0.758-1.692-1.691-1.692h-67.924 c-0.936,0-1.692,0.758-1.692,1.692v27.13C332.256,306.189,333.015,306.947,333.948,306.947z"/> <path d="M333.948,349.633h67.924c0.936,0,1.691-0.757,1.691-1.693v-27.129c0-0.938-0.758-1.695-1.691-1.695h-67.924 c-0.936,0-1.692,0.76-1.692,1.695v27.129C332.256,348.876,333.015,349.633,333.948,349.633z"/> <path d="M333.948,264.262h67.924c0.936,0,1.691-0.756,1.691-1.693v-27.129c0-0.937-0.758-1.692-1.691-1.692h-67.924 c-0.936,0-1.692,0.758-1.692,1.692v27.129C332.256,263.506,333.015,264.262,333.948,264.262z"/> </g> </g> </g> </g>
</svg>