<?xml version="1.0" encoding="utf-8"?>
<!-- Uploaded to: SVG Repo, www.svgrepo.com, Generator: SVG Repo Mixer Tools -->
<svg width="800px" height="800px" viewBox="0 0 1024 1024" fill="#000000" class="icon"  version="1.1" xmlns="http://www.w3.org/2000/svg"><path d="M799.94 803.376a7.992 7.992 0 0 1-7.996-7.998V512c0-17.636-14.358-31.994-31.994-31.994s-31.994 14.358-31.994 31.994v39.992c0 4.42-3.578 7.998-7.998 7.998s-7.998-3.578-7.998-7.998V512c0-26.462 21.528-47.99 47.99-47.99S807.94 485.538 807.94 512v283.378a7.994 7.994 0 0 1-8 7.998zM384.028 906.292a7.99 7.99 0 0 1-6.796-3.782L233.574 671.06c-6.672-11.56-8.422-24.776-5.032-37.414 3.39-12.654 11.498-23.212 22.84-29.76 23.416-13.512 53.458-5.466 66.956 17.934l72.578 106.634a7.99 7.99 0 0 1-2.11 11.108 7.96 7.96 0 0 1-11.108-2.11l-72.89-107.134c-9.42-16.278-29.666-21.712-45.428-12.574a32.744 32.744 0 0 0-15.388 20.042 32.848 32.848 0 0 0 3.296 25.058l143.534 231.232a8.004 8.004 0 0 1-6.794 12.216zM687.962 559.99a7.994 7.994 0 0 1-7.998-7.998V512c0-17.636-14.356-31.994-31.992-31.994-17.638 0-31.994 14.358-31.994 31.994v39.992c0 4.42-3.578 7.998-7.998 7.998s-7.998-3.578-7.998-7.998V512c0-26.462 21.528-47.99 47.99-47.99s47.99 21.528 47.99 47.99v39.992a7.994 7.994 0 0 1-8 7.998zM575.986 559.99a7.994 7.994 0 0 1-7.998-7.998V512c0-17.636-14.356-31.994-31.994-31.994-17.636 0-31.992 14.358-31.992 31.994v39.992a7.994 7.994 0 0 1-7.998 7.998 7.994 7.994 0 0 1-7.998-7.998V512c0-26.462 21.526-47.99 47.988-47.99 26.464 0 47.992 21.528 47.992 47.99v39.992a7.994 7.994 0 0 1-8 7.998zM384.028 703.96c-4.422 0-8-3.578-8-8V256.052c0-26.462 21.528-47.99 47.99-47.99 26.464 0 47.99 21.528 47.99 47.99v295.94a7.994 7.994 0 0 1-7.998 7.998 7.994 7.994 0 0 1-7.998-7.998v-295.94c0-17.636-14.358-31.994-31.994-31.994s-31.992 14.356-31.992 31.994V695.96c0 4.422-3.578 8-7.998 8z" fill="" /><path d="M579.424 1023.894a7.994 7.994 0 0 1-7.998-8 7.994 7.994 0 0 1 7.998-7.998c117.18 0 212.52-95.338 212.52-212.518a7.992 7.992 0 0 1 7.996-7.998c4.422 0 8 3.576 8 7.998 0 126.004-102.512 228.516-228.516 228.516z" fill="" /><path d="M579.424 1023.894c-85.044 0-162.514-46.696-202.194-121.868a8.004 8.004 0 0 1 3.344-10.808 8.034 8.034 0 0 1 10.81 3.342c36.898 69.908 108.946 113.336 188.04 113.336a7.994 7.994 0 0 1 7.998 7.998c0 4.422-3.576 8-7.998 8zM496.004 402.664a8 8 0 0 1-7.466-5.124 8.016 8.016 0 0 1 4.592-10.342c73.484-28.37 122.85-100.354 122.85-179.134 0-105.852-86.108-191.96-191.96-191.96s-191.958 86.108-191.958 191.96c0 78.766 49.348 150.75 122.802 179.12a8.02 8.02 0 0 1 4.576 10.358c-1.594 4.108-6.216 6.14-10.358 4.578-79.56-30.758-133.02-108.728-133.02-194.054C216.062 93.402 309.356 0.108 424.02 0.108S631.978 93.4 631.978 208.066c0 85.342-53.488 163.326-133.098 194.07a8.138 8.138 0 0 1-2.876 0.528z" fill="" /><path d="M351.97 450.638c-0.954 0-1.938-0.172-2.89-0.532-79.56-30.758-133.02-108.728-133.02-194.054a7.994 7.994 0 0 1 8-7.998 7.994 7.994 0 0 1 7.998 7.998c0 78.766 49.348 150.75 122.802 179.12a8.02 8.02 0 0 1 4.576 10.358 8.012 8.012 0 0 1-7.466 5.108zM496.004 450.654a8.004 8.004 0 0 1-7.466-5.124 8.016 8.016 0 0 1 4.592-10.342c73.484-28.37 122.85-100.354 122.85-179.134a7.994 7.994 0 0 1 7.998-7.998 7.994 7.994 0 0 1 7.998 7.998c0 85.342-53.488 163.326-133.098 194.07-0.936 0.358-1.92 0.53-2.874 0.53z" fill="" /><path d="M623.976 264.05a7.994 7.994 0 0 1-7.998-7.998v-47.99a7.994 7.994 0 0 1 7.998-7.998 7.994 7.994 0 0 1 7.998 7.998v47.99a7.992 7.992 0 0 1-7.998 7.998zM224.06 264.05c-4.422 0-8-3.578-8-7.998v-47.99a7.994 7.994 0 0 1 8-7.998 7.994 7.994 0 0 1 7.998 7.998v47.99a7.994 7.994 0 0 1-7.998 7.998zM320.04 434.86a7.994 7.994 0 0 1-7.998-7.998v-47.99a7.994 7.994 0 0 1 7.998-7.998c4.422 0 8 3.578 8 7.998v47.99c0 4.42-3.58 7.998-8 7.998z" fill="" /><path d="M527.998 434.86c-4.422 0-8-3.578-8-7.998v-47.99a7.994 7.994 0 0 1 8-7.998 7.992 7.992 0 0 1 7.996 7.998v47.99a7.992 7.992 0 0 1-7.996 7.998z" fill="" /><path d="M575.986 393.962a7.994 7.994 0 0 1-7.998-8v-47.974a7.994 7.994 0 0 1 7.998-7.998c4.422 0 8 3.578 8 7.998v47.974c0 4.422-3.578 8-8 8z" fill="" /><path d="M272.048 393.978a7.994 7.994 0 0 1-7.998-8v-47.99a7.994 7.994 0 0 1 7.998-7.998c4.422 0 8 3.578 8 7.998v47.99c0 4.422-3.578 8-8 8z" fill="" /><path d="M416.02 192.066a7.994 7.994 0 0 1-7.998-7.998v-15.998c0-4.42 3.578-8 7.998-8a7.994 7.994 0 0 1 7.998 8v15.998a7.994 7.994 0 0 1-7.998 7.998z" fill="" /><path d="M448.014 192.066a7.994 7.994 0 0 1-7.998-7.998V120.082c0-4.42 3.576-8 7.998-8a7.994 7.994 0 0 1 7.998 8v63.988a7.994 7.994 0 0 1-7.998 7.996z" fill="" /><path d="M384.028 160.072a8.02 8.02 0 0 1-7.156-4.42 8.008 8.008 0 0 1 3.578-10.732l63.986-31.994a7.988 7.988 0 0 1 10.732 3.578 8.006 8.006 0 0 1-3.578 10.732l-63.986 31.992a7.964 7.964 0 0 1-3.576 0.844z" fill="" /></svg>