<svg version="1.1" xmlns="http://www.w3.org/2000/svg" width="85.880mm" height="33.764mm">
    <!--Autogenerated with python-barcode 0.16.1-->
    <g id="barcode_group">
        <rect width="100%" height="100%" style="fill:white"/>
        <rect x="2.540mm" y="1.000mm" width="1.600mm" height="25.000mm" style="fill:black;"/>
        <rect x="4.940mm" y="1.000mm" width="0.800mm" height="25.000mm" style="fill:black;"/>
        <rect x="7.340mm" y="1.000mm" width="0.800mm" height="25.000mm" style="fill:black;"/>
        <rect x="11.340mm" y="1.000mm" width="0.800mm" height="25.000mm" style="fill:black;"/>
        <rect x="13.740mm" y="1.000mm" width="1.600mm" height="25.000mm" style="fill:black;"/>
        <rect x="16.140mm" y="1.000mm" width="0.800mm" height="25.000mm" style="fill:black;"/>
        <rect x="20.140mm" y="1.000mm" width="0.800mm" height="25.000mm" style="fill:black;"/>
        <rect x="24.140mm" y="1.000mm" width="0.800mm" height="25.000mm" style="fill:black;"/>
        <rect x="25.740mm" y="1.000mm" width="1.600mm" height="25.000mm" style="fill:black;"/>
        <rect x="28.940mm" y="1.000mm" width="0.800mm" height="25.000mm" style="fill:black;"/>
        <rect x="31.340mm" y="1.000mm" width="1.600mm" height="25.000mm" style="fill:black;"/>
        <rect x="33.740mm" y="1.000mm" width="0.800mm" height="25.000mm" style="fill:black;"/>
        <rect x="37.740mm" y="1.000mm" width="0.800mm" height="25.000mm" style="fill:black;"/>
        <rect x="41.740mm" y="1.000mm" width="0.800mm" height="25.000mm" style="fill:black;"/>
        <rect x="43.340mm" y="1.000mm" width="1.600mm" height="25.000mm" style="fill:black;"/>
        <rect x="46.540mm" y="1.000mm" width="0.800mm" height="25.000mm" style="fill:black;"/>
        <rect x="48.940mm" y="1.000mm" width="1.600mm" height="25.000mm" style="fill:black;"/>
        <rect x="53.740mm" y="1.000mm" width="0.800mm" height="25.000mm" style="fill:black;"/>
        <rect x="55.340mm" y="1.000mm" width="0.800mm" height="25.000mm" style="fill:black;"/>
        <rect x="59.340mm" y="1.000mm" width="0.800mm" height="25.000mm" style="fill:black;"/>
        <rect x="60.940mm" y="1.000mm" width="1.600mm" height="25.000mm" style="fill:black;"/>
        <rect x="64.140mm" y="1.000mm" width="0.800mm" height="25.000mm" style="fill:black;"/>
        <rect x="66.540mm" y="1.000mm" width="1.600mm" height="25.000mm" style="fill:black;"/>
        <rect x="70.540mm" y="1.000mm" width="0.800mm" height="25.000mm" style="fill:black;"/>
        <rect x="72.940mm" y="1.000mm" width="1.600mm" height="25.000mm" style="fill:black;"/>
        <rect x="76.940mm" y="1.000mm" width="2.400mm" height="25.000mm" style="fill:black;"/>
        <rect x="80.140mm" y="1.000mm" width="0.800mm" height="25.000mm" style="fill:black;"/>
        <rect x="81.740mm" y="1.000mm" width="1.600mm" height="25.000mm" style="fill:black;"/>
        <text x="42.940mm" y="31.000mm" style="fill:black;font-size:10pt;text-anchor:middle;">Asset-gcgchc</text>
    </g>
</svg>