<?xml version="1.0" encoding="utf-8"?>
<!-- Uploaded to: SVG Repo, www.svgrepo.com, Generator: SVG Repo Mixer Tools -->
<svg width="800px" height="800px" viewBox="0 0 1024 1024" fill="#000000" class="icon"  version="1.1" xmlns="http://www.w3.org/2000/svg"><path d="M512.308 751.564c-4.422 0-8.078-3.578-8.078-8 0-4.42 3.5-7.998 7.906-7.998h0.172a8.004 8.004 0 0 1 7.998 7.998c0 4.422-3.592 8-7.998 8zM512.308 799.558c-4.422 0-8.078-3.578-8.078-8 0-4.42 3.5-7.998 7.906-7.998h0.172a8.004 8.004 0 0 1 7.998 7.998c0 4.422-3.592 8-7.998 8zM512.308 847.552c-4.422 0-8.078-3.578-8.078-8s3.5-8 7.906-8h0.172c4.406 0 7.998 3.578 7.998 8s-3.592 8-7.998 8z" fill="" /><path d="M839.774 879.546H183.866c-4.42 0-8-3.576-8-7.998v-79.74c0-48.338 24.856-66.788 70.71-83.942 24.528-9.156 79.02-30.512 109.72-45.712a8.012 8.012 0 0 1 10.718 3.624 8.004 8.004 0 0 1-3.624 10.716c-31.276 15.482-86.426 37.104-111.22 46.37-40.854 15.264-60.304 29.48-60.304 68.944v71.74h639.908v-71.74c0-39.462-19.434-53.68-60.304-68.944-24.746-9.25-79.832-30.84-111.204-46.37a7.988 7.988 0 0 1-3.624-10.716c1.938-3.984 6.782-5.562 10.718-3.624 30.778 15.248 85.208 36.572 109.704 45.712 45.87 17.154 70.71 35.604 70.71 83.942v79.74a7.984 7.984 0 0 1-8 7.998z" fill="" /><path d="M511.824 687.572c-75.334 0-199.974-116.062-199.974-248.334 0-4.42 3.578-8 8-8s8 3.578 8 8c0 119.806 114.766 232.336 183.976 232.336 69.202 0 183.968-112.532 183.968-232.336 0-4.42 3.592-8 7.998-8a7.984 7.984 0 0 1 7.998 8c0 132.272-124.64 248.334-199.966 248.334z" fill="" /><path d="M319.848 431.614a8.016 8.016 0 0 1-7.968-7.25c-6.968-74.436 9.186-133.81 48.042-176.47 57.68-63.334 152.324-76.63 221.542-76.63 39.15 0 66.46 4.296 67.618 4.484a8.032 8.032 0 0 1 6.686 6.976 8.012 8.012 0 0 1-4.906 8.32c-36.306 14.928-32.306 50.22-29.09 64.196 14.624-0.438 45.278 2.804 67.93 29.278 24.622 28.762 32.028 75.974 21.996 140.334a7.968 7.968 0 0 1-6.092 6.554 7.904 7.904 0 0 1-8.342-3.204l-52.212-74.544c-18.342 7.992-74.208 29.964-133.646 29.964-59.352 0-114.58-21.91-132.828-29.942l-52.18 74.522a8.008 8.008 0 0 1-6.55 3.412z m327.95-95.988c2.53 0 5.03 1.21 6.56 3.414l44.15 63.086c5-49.088-2.03-85.09-20.934-107.206-17.686-20.622-41.462-23.7-54.088-23.7-3.876 0-6.31 0.304-6.56 0.336-3.718 0.492-7.406-1.696-8.688-5.296-6.466-18.638-9.31-54.368 15.874-77.224a513.33 513.33 0 0 0-42.65-1.774c-65.998 0-155.956 12.39-209.714 71.406-31.746 34.862-46.948 82.418-45.322 141.598l42.87-61.226c2.234-3.242 6.516-4.328 10.062-2.6 0.64 0.312 64.71 31.182 132.046 31.182 67.498 0 132.272-30.886 132.928-31.198a8.002 8.002 0 0 1 3.466-0.798zM824.026 543.608c-4.438 0-8.092-3.578-8.092-8s3.498-7.99 7.904-7.99h0.188a7.996 7.996 0 1 1 0 15.99zM823.526 479.608c-26.308 0-60.93-21.842-86.114-54.344a8.016 8.016 0 0 1 1.438-11.226 7.982 7.982 0 0 1 11.216 1.43c21.964 28.348 52.18 48.142 73.458 48.142 39.12 0 103.986-62.656 103.986-129.358 0-4.42 3.594-8 8-8a7.984 7.984 0 0 1 7.998 8c0.002 77.418-74.77 145.356-119.982 145.356z" fill="" /><path d="M1016 591.584H695.792c-4.406 0-8-3.576-8-7.998s3.594-7.998 8-7.998H1008v-32.45c0-20.81-7.562-29.34-35.246-39.684-3.716-1.39-8.248-2.898-13.28-4.584l-10.842-3.67a8.01 8.01 0 0 1-4.968-10.178c1.468-4.17 6.094-6.358 10.186-4.944l10.718 3.624c5.216 1.75 9.936 3.328 13.78 4.772C1007.284 499.276 1024 511.682 1024 543.138v40.448a7.984 7.984 0 0 1-8 7.998zM199.974 591.584H7.998A7.994 7.994 0 0 1 0 583.586V530.28c0-31.174 16.576-43.47 45.198-54.164 16.374-6.132 37.462-14.272 55.336-22.8a7.996 7.996 0 0 1 10.67 3.772 8 8 0 0 1-3.764 10.664c-18.434 8.802-39.948 17.098-56.632 23.348C23.482 501.31 16 509.738 16 530.282v45.308h183.976c4.42 0 8 3.576 8 7.998s-3.582 7.996-8.002 7.996z" fill="" /><path d="M327.832 591.584H199.974c-4.42 0-8-3.576-8-7.998s3.578-7.998 8-7.998h127.858c4.422 0 8 3.576 8 7.998s-3.578 7.998-8 7.998zM200.458 465.796c-45.198 0-119.968-71.944-119.968-153.934 0-4.422 3.578-8 8-8a7.994 7.994 0 0 1 7.998 8c0 71.124 64.868 137.936 103.972 137.936 21.044 0 51.04-20.826 72.944-50.65 2.656-3.57 7.67-4.304 11.186-1.71a8 8 0 0 1 1.718 11.178c-25.53 34.738-59.228 57.18-85.85 57.18z" fill="" /><path d="M168.228 495.606a7.962 7.962 0 0 1-5.656-2.344l-47.994-47.994a8 8 0 0 1 11.312-11.31l43.932 43.932 27.09-13.444a7.988 7.988 0 0 1 10.732 3.61 8.002 8.002 0 0 1-3.61 10.716l-32.246 15.998a8.04 8.04 0 0 1-3.56 0.836z" fill="" /><path d="M232.218 495.606a8.06 8.06 0 0 1-3.562-0.836l-32.246-15.998a8.004 8.004 0 0 1-3.61-10.716 7.99 7.99 0 0 1 10.732-3.61l27.09 13.444 43.932-43.932a8 8 0 0 1 11.312 11.31l-47.994 47.994a7.96 7.96 0 0 1-5.654 2.344zM55.992 319.628c-1.376 0-2.75-0.36-3.984-1.07a7.984 7.984 0 0 1-4.014-6.928c-0.016-80.52 40.246-116.718 59.79-129.552l-9.234-8.562a8.012 8.012 0 0 1-2.406-7.474 7.998 7.998 0 0 1 5.156-5.922c4.344-1.546 107.22-37.534 171.322 5.086 29.574 19.662 45.806 52.632 48.274 97.994a7.986 7.986 0 0 1-7.546 8.422c-4.672 0.648-8.186-3.14-8.42-7.546-2.186-40.056-16.03-68.834-41.166-85.55-45.042-29.942-115.344-15.216-144.136-7.288l7.06 6.546a8.034 8.034 0 0 1 2.454 7.226 8.04 8.04 0 0 1-4.734 5.992c-2.312 1.016-54.65 24.934-59.976 106.908 33.776-17.764 129.374-63.312 214.768-58.25a7.986 7.986 0 0 1 6.578 4.21l17.124 31.996a7.996 7.996 0 0 1-3.266 10.828 8.012 8.012 0 0 1-10.828-3.282l-14.982-27.996c-98.018-3.5-212.644 62.46-213.816 63.14a8.06 8.06 0 0 1-4.018 1.072zM199.974 511.604a7.98 7.98 0 0 1-5.656-2.344l-15.998-15.998a7.996 7.996 0 1 1 11.31-11.31l15.998 15.998a7.996 7.996 0 0 1-5.654 13.654z" fill="" /><path d="M199.974 511.604a7.996 7.996 0 0 1-5.656-13.654l15.998-15.998a7.996 7.996 0 1 1 11.31 11.31l-15.998 15.998a7.972 7.972 0 0 1-5.654 2.344z" fill="" /><path d="M183.992 575.588a7.998 7.998 0 0 1-7.968-8.89l8-71.974c0.484-4.398 4.25-7.57 8.842-7.07a8.004 8.004 0 0 1 7.062 8.836l-8 71.99a8.006 8.006 0 0 1-7.936 7.108z" fill="" /><path d="M215.956 575.588a8.004 8.004 0 0 1-7.936-7.11l-8-71.99a8.002 8.002 0 0 1 7.062-8.836 7.96 7.96 0 0 1 8.842 7.07l8 71.974a7.998 7.998 0 0 1-7.968 8.892zM967.758 469.342c-4.406 0-8-3.578-8-8v-149.714c0-4.422 3.594-8 8-8a7.984 7.984 0 0 1 7.998 8v149.714c0 4.424-3.562 8-7.998 8zM694.73 255.636a8.04 8.04 0 0 1-3.562-0.836 8.01 8.01 0 0 1-3.594-10.726c25.872-52.072 78.052-84.426 136.202-84.426 4.438 0 7.998 3.578 7.998 8s-3.56 8-7.998 8c-52.026 0-98.736 28.95-121.86 75.552a8.032 8.032 0 0 1-7.186 4.436z" fill="" /><path d="M967.758 319.628c-4.406 0-8-3.578-8-8 0-74.982-60.992-135.982-135.982-135.982-4.406 0-7.998-3.578-7.998-8s3.592-8 7.998-8c83.802 0 151.98 68.178 151.98 151.98a7.986 7.986 0 0 1-7.998 8.002z" fill="" /><path d="M743.786 323.064a7.97 7.97 0 0 1-7.686-5.842 7.994 7.994 0 0 1 5.53-9.86c107.33-30.012 183.414-97.018 184.164-97.69a7.968 7.968 0 0 1 11.282 0.648 8.012 8.012 0 0 1-0.624 11.288c-3.188 2.852-79.458 70.116-190.508 101.158-0.722 0.204-1.44 0.298-2.158 0.298z" fill="" /><path d="M967.758 335.626a8.06 8.06 0 0 1-2.032-0.266c-77.396-20.372-114.362-60.618-115.892-62.328a8 8 0 0 1 0.594-11.28 7.976 7.976 0 0 1 11.28 0.562c0.344 0.382 35.622 38.504 108.08 57.58a8 8 0 0 1 5.718 9.772 8.006 8.006 0 0 1-7.748 5.96z" fill="" /><path d="M935.512 342.25c-4.406 0-8-3.578-8-8v-16.966c0-4.422 3.594-8 8-8a7.984 7.984 0 0 1 7.998 8v16.966c0 4.422-3.562 8-7.998 8z" fill="" /><path d="M856.084 575.588a8 8 0 0 1-5.656-13.64l42.056-42.33-10.374-10.358a8.088 8.088 0 0 1-2.312-6.446 8.034 8.034 0 0 1 3.532-5.866l38.276-25.52-22.464-15.788a8.03 8.03 0 0 1-1.938-11.148 8 8 0 0 1 11.156-1.946l32.026 22.514a8.008 8.008 0 0 1 3.376 6.648 7.934 7.934 0 0 1-3.562 6.554l-39.87 26.582 9.092 9.102a8.006 8.006 0 0 1 0.032 11.294l-47.682 47.986a7.97 7.97 0 0 1-5.688 2.362z" fill="" /><path d="M791.466 575.588a7.896 7.896 0 0 1-5.654-2.36l-47.682-47.986a7.976 7.976 0 0 1 0-11.294l9.092-9.102-7.874-5.256a8.028 8.028 0 0 1-2.218-11.092 8.014 8.014 0 0 1 11.092-2.218l15.998 10.67a8.034 8.034 0 0 1 3.532 5.866 7.99 7.99 0 0 1-2.312 6.446l-10.342 10.358 42.056 42.33a8 8 0 0 1-0.032 11.312 8.058 8.058 0 0 1-5.656 2.326z" fill="" /><path d="M823.776 511.604c-34.902 0-52.9-17.592-53.65-18.342a7.996 7.996 0 0 1 0-11.31c3.124-3.11 8.188-3.118 11.282-0.046 0.562 0.562 14.466 13.702 42.37 13.702s42.212-13.49 42.338-13.63a7.996 7.996 0 0 1 11.312 0.016 7.996 7.996 0 0 1 0 11.31c-0.752 0.738-18.75 18.3-53.652 18.3z" fill="" /><path d="M375.842 655.576c-4.422 0-8-3.578-8-7.998v-15.998c0-4.422 3.578-8 8-8a7.994 7.994 0 0 1 7.998 8v15.998a7.994 7.994 0 0 1-7.998 7.998z" fill="" /><path d="M439.834 735.566a8.006 8.006 0 0 1-6.25-3l-63.992-79.99a8.01 8.01 0 0 1 1.25-11.248c3.484-2.734 8.5-2.188 11.25 1.25l63.992 79.99a8.01 8.01 0 0 1-1.25 11.248 8.06 8.06 0 0 1-5 1.75z" fill="" /><path d="M439.834 735.566a8.02 8.02 0 0 1-7.156-4.422 8.006 8.006 0 0 1 3.578-10.732l63.992-31.996a8.004 8.004 0 0 1 10.734 3.578 8.006 8.006 0 0 1-3.578 10.732l-63.992 31.996a7.972 7.972 0 0 1-3.578 0.844z" fill="" /><path d="M647.798 655.576c-4.406 0-8-3.578-8-7.998v-15.998c0-4.422 3.594-8 8-8a7.984 7.984 0 0 1 7.998 8v15.998a7.984 7.984 0 0 1-7.998 7.998z" fill="" /><path d="M583.806 735.566c-1.75 0-3.5-0.578-5-1.75a8.026 8.026 0 0 1-1.248-11.248l63.99-79.99a8.042 8.042 0 0 1 11.248-1.25 7.998 7.998 0 0 1 1.25 11.248l-63.992 79.99a7.964 7.964 0 0 1-6.248 3z" fill="" /><path d="M583.806 735.566a7.942 7.942 0 0 1-3.562-0.844l-63.998-31.996a8.006 8.006 0 0 1-3.578-10.732 8.02 8.02 0 0 1 10.732-3.578l64 31.996a8.014 8.014 0 0 1 3.56 10.732 7.998 7.998 0 0 1-7.154 4.422z" fill="" /></svg>