<?xml version="1.0" encoding="utf-8"?>
<!-- Uploaded to: SVG Repo, www.svgrepo.com, Generator: SVG Repo Mixer Tools -->
<svg width="800px" height="800px" viewBox="0 0 1024 1024" fill="#000000" class="icon"  version="1.1" xmlns="http://www.w3.org/2000/svg"><path d="M296.542 160.114c-4.414 0-8.076-3.576-8.076-7.998s3.498-7.998 7.918-7.998h0.156c4.42 0 7.998 3.576 7.998 7.998s-3.574 7.998-7.996 7.998zM328.532 160.114c-4.412 0-8.074-3.576-8.074-7.998s3.498-7.998 7.918-7.998h0.156c4.422 0 7.998 3.576 7.998 7.998s-3.576 7.998-7.998 7.998zM360.522 160.114c-4.412 0-8.076-3.576-8.076-7.998s3.5-7.998 7.918-7.998h0.156c4.422 0 7.998 3.576 7.998 7.998s-3.574 7.998-7.996 7.998z" fill="" /><path d="M775.918 176.11H264.076a7.994 7.994 0 0 1-7.998-7.998v-15.996c0-13.23 10.762-23.994 23.992-23.994h479.854c13.23 0 23.992 10.764 23.992 23.994v15.996a7.992 7.992 0 0 1-7.998 7.998z m-503.844-15.996h495.848v-7.998a8.008 8.008 0 0 0-7.996-7.998H280.072a8.004 8.004 0 0 0-7.998 7.998v7.998z" fill="" /><path d="M775.918 512.006H264.076a7.994 7.994 0 0 1-7.998-7.998V168.112a7.994 7.994 0 0 1 7.998-7.998h511.842c4.422 0 8 3.578 8 7.998v335.896a7.994 7.994 0 0 1-8 7.998z m-503.844-15.994h495.848V176.11H272.074v319.902z" fill="" /><path d="M743.93 304.072H296.066a7.994 7.994 0 0 1-7.998-7.998v-95.97a7.994 7.994 0 0 1 7.998-7.998h447.864a7.992 7.992 0 0 1 7.996 7.998v95.97a7.992 7.992 0 0 1-7.996 7.998z m-439.866-15.996h431.87V208.1H304.064v79.976z" fill="" /><path d="M695.946 256.084H344.052c-4.42 0-7.998-3.576-7.998-7.998s3.578-7.998 7.998-7.998h351.894c4.418 0 7.996 3.576 7.996 7.998s-3.578 7.998-7.996 7.998zM743.93 352.056H535.992c-4.418 0-7.996-3.576-7.996-7.998s3.578-7.998 7.996-7.998h207.938c4.422 0 7.996 3.576 7.996 7.998s-3.574 7.998-7.996 7.998zM743.93 384.046H535.992c-4.418 0-7.996-3.576-7.996-7.998s3.578-7.998 7.996-7.998h207.938c4.422 0 7.996 3.576 7.996 7.998s-3.574 7.998-7.996 7.998zM743.93 416.036H535.992c-4.418 0-7.996-3.576-7.996-7.998s3.578-7.998 7.996-7.998h207.938c4.422 0 7.996 3.576 7.996 7.998s-3.574 7.998-7.996 7.998zM639.96 448.026h-103.968a7.992 7.992 0 0 1-7.996-7.998 7.994 7.994 0 0 1 7.996-7.998h103.968a7.992 7.992 0 0 1 7.996 7.998 7.988 7.988 0 0 1-7.996 7.998zM504.002 480.016H296.066a7.994 7.994 0 0 1-7.998-7.998v-143.956a7.994 7.994 0 0 1 7.998-7.998h207.936a7.994 7.994 0 0 1 7.998 7.998v143.956a7.994 7.994 0 0 1-7.998 7.998z m-199.938-15.994h191.942v-127.96h-191.942v127.96z" fill="" /><path d="M488.014 480.016a7.988 7.988 0 0 1-6.864-3.88l-41.128-68.55-41.128 68.55a7.992 7.992 0 0 1-10.972 2.74 7.996 7.996 0 0 1-2.742-10.972l47.986-79.976c2.89-4.812 10.824-4.812 13.714 0l47.984 79.976a7.996 7.996 0 0 1-6.85 12.112z" fill="" /><path d="M344.044 480.016a7.988 7.988 0 0 1-4.428-1.344 7.988 7.988 0 0 1-2.218-11.09l31.99-47.986c2.968-4.452 10.34-4.452 13.308 0l24.25 36.364a7.992 7.992 0 0 1-2.218 11.09 8.008 8.008 0 0 1-11.09-2.218l-17.596-26.382-25.336 38.004a7.988 7.988 0 0 1-6.662 3.562z" fill="" /><path d="M344.052 400.042c-13.23 0-23.992-10.764-23.992-23.994s10.762-23.994 23.992-23.994 23.992 10.762 23.992 23.994c0 13.23-10.762 23.994-23.992 23.994z m0-31.99c-4.412 0-7.998 3.584-7.998 7.998s3.586 7.998 7.998 7.998 7.998-3.584 7.998-7.998-3.586-7.998-7.998-7.998z" fill="" /><path d="M48.618 751.942c-4.412 0-8.076-3.576-8.076-7.996 0-4.422 3.5-7.998 7.918-7.998h0.156a7.992 7.992 0 0 1 7.998 7.998 7.988 7.988 0 0 1-7.996 7.996zM80.608 751.942c-4.412 0-8.076-3.576-8.076-7.996 0-4.422 3.5-7.998 7.918-7.998h0.156a7.994 7.994 0 0 1 7.998 7.998 7.988 7.988 0 0 1-7.996 7.996zM112.598 751.942c-4.412 0-8.076-3.576-8.076-7.996 0-4.422 3.5-7.998 7.918-7.998h0.156a7.994 7.994 0 0 1 7.998 7.998 7.988 7.988 0 0 1-7.996 7.996z" fill="" /><path d="M280.072 767.938H8.156a7.994 7.994 0 0 1-7.998-7.998v-15.994c0-13.23 10.762-23.992 23.992-23.992h239.926c13.23 0 23.994 10.762 23.994 23.992v15.994a7.994 7.994 0 0 1-7.998 7.998z m-263.92-15.996h255.92v-7.996a7.996 7.996 0 0 0-7.998-7.998H24.15a8 8 0 0 0-7.998 7.998v7.996z" fill="" /><path d="M280.072 959.878H8.156a7.994 7.994 0 0 1-7.998-7.998v-191.94a7.994 7.994 0 0 1 7.998-7.998h271.916a7.994 7.994 0 0 1 7.998 7.998v191.942a7.994 7.994 0 0 1-7.998 7.996z m-263.92-15.996h255.92v-175.946H16.152v175.946z" fill="" /><path d="M248.082 847.912H40.146a7.992 7.992 0 0 1-7.998-7.998v-47.984a7.994 7.994 0 0 1 7.998-7.998h207.936a7.994 7.994 0 0 1 7.998 7.998v47.984a7.994 7.994 0 0 1-7.998 7.998z m-199.94-15.994h191.94v-31.99h-191.94v31.99zM128.118 927.888H40.146a7.994 7.994 0 0 1-7.998-7.998v-47.984a7.992 7.992 0 0 1 7.998-7.998h87.972a7.994 7.994 0 0 1 7.998 7.998v47.984a7.994 7.994 0 0 1-7.998 7.998z m-79.976-15.996H120.12v-31.99H48.142v31.99zM248.082 879.902H160.108a7.992 7.992 0 0 1-7.998-7.996 7.994 7.994 0 0 1 7.998-7.998h87.972a7.994 7.994 0 0 1 7.998 7.998 7.99 7.99 0 0 1-7.996 7.996z" fill="" /><path d="M248.082 911.892H160.108a7.994 7.994 0 0 1-7.998-7.998 7.992 7.992 0 0 1 7.998-7.996h87.972a7.992 7.992 0 0 1 7.998 7.996 7.992 7.992 0 0 1-7.996 7.998z" fill="" /><path d="M784.386 751.942c-4.406 0-8.062-3.576-8.062-7.996 0-4.422 3.5-7.998 7.906-7.998h0.156a7.982 7.982 0 0 1 7.996 7.998 7.982 7.982 0 0 1-7.996 7.996zM816.376 751.942c-4.402 0-8.058-3.576-8.058-7.996 0-4.422 3.5-7.998 7.902-7.998h0.156c4.438 0 8 3.576 8 7.998a7.984 7.984 0 0 1-8 7.996zM848.368 751.942c-4.406 0-8.062-3.576-8.062-7.996 0-4.422 3.5-7.998 7.906-7.998h0.156a7.982 7.982 0 0 1 7.996 7.998 7.984 7.984 0 0 1-7.996 7.996z" fill="" /><path d="M1015.848 767.938H743.93a7.992 7.992 0 0 1-7.996-7.998v-15.994c0-13.23 10.762-23.992 23.992-23.992h239.926c13.23 0 23.992 10.762 23.992 23.992v15.994a7.994 7.994 0 0 1-7.996 7.998z m-263.922-15.996h255.922v-7.996a8.002 8.002 0 0 0-7.996-7.998H759.926c-4.406 0-8 3.576-8 7.998v7.996z" fill="" /><path d="M1015.848 959.878H743.93a7.992 7.992 0 0 1-7.996-7.998v-191.94a7.992 7.992 0 0 1 7.996-7.998h271.918a7.994 7.994 0 0 1 7.996 7.998v191.942a7.994 7.994 0 0 1-7.996 7.996z m-263.922-15.996h255.922v-175.946H751.926v175.946z" fill="" /><path d="M983.856 847.912H775.918a7.992 7.992 0 0 1-7.996-7.998v-47.984a7.994 7.994 0 0 1 7.996-7.998h207.938a7.992 7.992 0 0 1 7.996 7.998v47.984a7.99 7.99 0 0 1-7.996 7.998z m-199.938-15.994h191.942v-31.99h-191.942v31.99zM863.89 927.888h-87.972a7.994 7.994 0 0 1-7.996-7.998v-47.984a7.992 7.992 0 0 1 7.996-7.998h87.972c4.422 0 8 3.576 8 7.998v47.984a7.994 7.994 0 0 1-8 7.998z m-79.972-15.996h71.976v-31.99h-71.976v31.99zM983.856 879.902h-87.972a7.99 7.99 0 0 1-7.996-7.996 7.99 7.99 0 0 1 7.996-7.998h87.972a7.99 7.99 0 0 1 7.996 7.998 7.99 7.99 0 0 1-7.996 7.996z" fill="" /><path d="M983.856 911.892h-87.972a7.99 7.99 0 0 1-7.996-7.998 7.99 7.99 0 0 1 7.996-7.996h87.972a7.99 7.99 0 0 1 7.996 7.996 7.99 7.99 0 0 1-7.996 7.998z" fill="" /><path d="M416.506 799.928c-4.414 0-8.076-3.576-8.076-7.998 0-4.42 3.498-7.998 7.918-7.998h0.156a7.994 7.994 0 0 1 7.998 7.998 7.992 7.992 0 0 1-7.996 7.998zM448.496 799.928c-4.414 0-8.076-3.576-8.076-7.998 0-4.42 3.498-7.998 7.918-7.998h0.156a7.994 7.994 0 0 1 7.998 7.998 7.99 7.99 0 0 1-7.996 7.998zM480.486 799.928c-4.414 0-8.076-3.576-8.076-7.998 0-4.42 3.498-7.998 7.918-7.998h0.156a7.994 7.994 0 0 1 7.998 7.998 7.988 7.988 0 0 1-7.996 7.998z" fill="" /><path d="M647.958 815.922H376.042a7.992 7.992 0 0 1-7.998-7.996v-15.996c0-13.23 10.762-23.992 23.994-23.992h239.928c13.23 0 23.992 10.762 23.992 23.992v15.996c0 4.42-3.58 7.996-8 7.996z m-263.918-15.994h255.92v-7.998a8.004 8.004 0 0 0-7.996-7.998H392.038a8 8 0 0 0-7.998 7.998v7.998z" fill="" /><path d="M647.958 1007.864H376.042a7.992 7.992 0 0 1-7.998-7.996v-191.942a7.994 7.994 0 0 1 7.998-7.998h271.916c4.422 0 8 3.576 8 7.998v191.942c0 4.42-3.58 7.996-8 7.996z m-263.918-15.994h255.92v-175.948H384.04v175.948z" fill="" /><path d="M615.968 895.898H408.032a7.994 7.994 0 0 1-7.998-7.998v-47.986a7.992 7.992 0 0 1 7.998-7.996h207.936a7.99 7.99 0 0 1 7.996 7.996v47.986a7.992 7.992 0 0 1-7.996 7.998z m-199.938-15.996h191.942v-31.99h-191.942v31.99zM496.004 975.874h-87.972a7.994 7.994 0 0 1-7.998-7.998v-47.984a7.994 7.994 0 0 1 7.998-7.998h87.972a7.994 7.994 0 0 1 7.998 7.998v47.984a7.994 7.994 0 0 1-7.998 7.998z m-79.974-15.996h71.976v-31.99h-71.976v31.99zM615.968 927.888h-87.972c-4.422 0-8-3.578-8-7.998s3.578-7.998 8-7.998h87.972c4.422 0 7.996 3.578 7.996 7.998s-3.574 7.998-7.996 7.998z" fill="" /><path d="M615.968 959.878h-87.972c-4.422 0-8-3.578-8-7.998s3.578-7.998 8-7.998h87.972c4.422 0 7.996 3.578 7.996 7.998s-3.574 7.998-7.996 7.998z" fill="" /><path d="M575.98 112.13h-111.966a7.994 7.994 0 0 1-7.998-7.998V56.148c0-2.774 1.438-5.35 3.796-6.802a8.018 8.018 0 0 1 7.778-0.352l24.774 12.386 19.946-40.738a8.004 8.004 0 0 1 7.124-4.482c2.644-0.25 5.808 1.664 7.184 4.358l20.882 40.926 24.898-12.45a7.964 7.964 0 0 1 7.782 0.352 7.994 7.994 0 0 1 3.792 6.802v47.984a7.986 7.986 0 0 1-7.992 7.998z m-103.968-15.996h95.972V69.088l-20.418 10.208a8.008 8.008 0 0 1-10.7-3.514l-17.222-33.74-16.462 33.614a8 8 0 0 1-4.624 4.062 7.91 7.91 0 0 1-6.138-0.422l-20.408-10.208v27.046z" fill="" /><path d="M519.996 703.958A7.994 7.994 0 0 1 512 695.96v-111.964a7.994 7.994 0 0 1 7.996-7.998c4.422 0 8 3.578 8 7.998v111.964a7.996 7.996 0 0 1-8 7.998z" fill="" /><path d="M519.996 703.958a7.994 7.994 0 0 1-5.652-13.652l15.996-15.996a7.996 7.996 0 1 1 11.308 11.31l-15.996 15.994a7.976 7.976 0 0 1-5.656 2.344z" fill="" /><path d="M519.996 703.958a7.974 7.974 0 0 1-5.652-2.344l-15.996-15.994a7.996 7.996 0 1 1 11.308-11.31l15.996 15.996a7.994 7.994 0 0 1-5.656 13.652z" fill="" /><path d="M168.106 655.972a7.994 7.994 0 0 1-5.654-13.652l79.976-79.976a7.994 7.994 0 0 1 11.308 0 7.994 7.994 0 0 1 0 11.308L173.76 653.628a7.964 7.964 0 0 1-5.654 2.344z" fill="" /><path d="M190.724 655.972H168.106c-4.42 0-7.998-3.578-7.998-7.998s3.576-7.998 7.998-7.998h22.618c4.42 0 7.998 3.578 7.998 7.998s-3.578 7.998-7.998 7.998z" fill="" /><path d="M168.106 655.972a7.994 7.994 0 0 1-7.998-7.998v-22.62c0-4.42 3.576-7.996 7.998-7.996s7.998 3.576 7.998 7.996v22.62a7.996 7.996 0 0 1-7.998 7.998z" fill="" /><path d="M871.89 655.972a7.976 7.976 0 0 1-5.656-2.344l-79.972-79.976a7.994 7.994 0 0 1 0-11.308 7.994 7.994 0 0 1 11.308 0l79.972 79.976a7.994 7.994 0 0 1 0 11.308 7.948 7.948 0 0 1-5.652 2.344z" fill="" /><path d="M871.89 655.972h-22.618c-4.422 0-8-3.578-8-7.998s3.578-7.998 8-7.998h22.618c4.418 0 7.996 3.578 7.996 7.998s-3.578 7.998-7.996 7.998z" fill="" /><path d="M871.89 655.972c-4.422 0-8-3.578-8-7.998v-22.62a7.994 7.994 0 0 1 8-7.996 7.992 7.992 0 0 1 7.996 7.996v22.62a7.994 7.994 0 0 1-7.996 7.998z" fill="" /></svg>