<?xml version="1.0" encoding="utf-8"?>
<!-- Uploaded to: SVG Repo, www.svgrepo.com, Generator: SVG Repo Mixer Tools -->
<svg width="800px" height="800px" viewBox="0 0 1024 1024" fill="#A9A9A9" class="icon"  version="1.1" xmlns="http://www.w3.org/2000/svg"><path d="M88.606 128.118c-4.412 0-8.076-3.576-8.076-7.998s3.5-7.998 7.92-7.998h0.156c4.42 0 7.998 3.576 7.998 7.998s-3.578 7.998-7.998 7.998zM120.596 128.118c-4.412 0-8.076-3.576-8.076-7.998s3.5-7.998 7.92-7.998h0.156c4.42 0 7.998 3.576 7.998 7.998s-3.578 7.998-7.998 7.998zM152.586 128.118c-4.412 0-8.076-3.576-8.076-7.998s3.5-7.998 7.92-7.998h0.156c4.42 0 7.998 3.576 7.998 7.998s-3.578 7.998-7.998 7.998zM679.95 687.696H8.156a7.992 7.992 0 0 1-7.998-7.996 7.994 7.994 0 0 1 7.998-7.998h671.794a7.99 7.99 0 0 1 7.996 7.998 7.99 7.99 0 0 1-7.996 7.996zM512 767.64c-17.644 0-31.99-14.34-31.99-31.99S494.356 703.66 512 703.66c17.652 0 31.992 14.34 31.992 31.99S529.652 767.64 512 767.64z m0-47.984c-8.818 0-15.996 7.184-15.996 15.994s7.178 15.994 15.996 15.994c8.816 0 15.996-7.184 15.996-15.994s-7.18-15.994-15.996-15.994zM376.144 975.608a8.01 8.01 0 0 1-7.818-9.73l31.99-143.956c0.96-4.296 5.294-6.954 9.544-6.078a8.014 8.014 0 0 1 6.078 9.544l-31.99 143.956a8.004 8.004 0 0 1-7.804 6.264zM647.864 975.608a8 8 0 0 1-7.808-6.264l-31.988-143.956a8.01 8.01 0 0 1 6.074-9.544c4.296-0.89 8.59 1.782 9.542 6.078l31.992 143.956a8.008 8.008 0 0 1-7.812 9.73z" fill="" /><path d="M671.954 975.608H352.05a7.992 7.992 0 0 1-7.998-7.998 7.992 7.992 0 0 1 7.998-7.996h319.904a7.992 7.992 0 0 1 7.996 7.996 7.992 7.992 0 0 1-7.996 7.998zM967.86 943.618h-175.946c-30.864 0-55.98-25.118-55.98-55.982V535.742c0-30.866 25.118-55.982 55.98-55.982h175.946c30.868 0 55.984 25.118 55.984 55.982v351.892c0 30.866-25.118 55.984-55.984 55.984z m-175.946-447.864c-22.054 0-39.988 17.94-39.988 39.988v351.892c0 22.056 17.934 39.988 39.988 39.988h175.946c22.058 0 39.988-17.932 39.988-39.988V535.742c0-22.046-17.93-39.988-39.988-39.988h-175.946z" fill="" /><path d="M983.856 655.958H775.918a7.994 7.994 0 0 1-7.996-7.998v-95.97a7.992 7.992 0 0 1 7.996-7.998h207.938a7.99 7.99 0 0 1 7.996 7.998v95.97a7.992 7.992 0 0 1-7.996 7.998z m-199.938-15.998h191.942v-79.976h-191.942v79.976zM983.856 799.912H775.918a7.992 7.992 0 0 1-7.996-7.998v-111.964a7.992 7.992 0 0 1 7.996-7.998h207.938a7.99 7.99 0 0 1 7.996 7.998v111.964a7.99 7.99 0 0 1-7.996 7.998z m-199.938-15.996h191.942v-95.97h-191.942v95.97zM903.878 527.996h-47.984c-4.422 0-7.996-3.578-7.996-7.998s3.574-7.998 7.996-7.998h47.984c4.422 0 8 3.578 8 7.998s-3.578 7.998-8 7.998z" fill="" /><path d="M952.368 591.976h-143.958c-4.422 0-8-3.578-8-7.998s3.578-7.998 8-7.998h143.958c4.418 0 7.996 3.578 7.996 7.998s-3.578 7.998-7.996 7.998zM919.876 623.964H840.9a7.992 7.992 0 0 1-7.996-7.996 7.992 7.992 0 0 1 7.996-7.998h78.976a7.99 7.99 0 0 1 7.996 7.998 7.99 7.99 0 0 1-7.996 7.996zM880.386 927.874c-13.23 0-23.992-10.764-23.992-23.994s10.762-23.992 23.992-23.992 23.992 10.762 23.992 23.992-10.76 23.994-23.992 23.994z m0-31.992a8.012 8.012 0 0 0-7.996 7.996 8.014 8.014 0 0 0 7.996 7.998c4.406 0 8-3.592 8-7.998a8.014 8.014 0 0 0-8-7.996zM983.856 831.902H775.918c-4.418 0-7.996-3.578-7.996-7.998s3.578-7.998 7.996-7.998h207.938c4.422 0 7.996 3.578 7.996 7.998s-3.574 7.998-7.996 7.998zM983.856 863.892H775.918c-4.418 0-7.996-3.578-7.996-7.998s3.578-7.998 7.996-7.998h207.938c4.422 0 7.996 3.578 7.996 7.998s-3.574 7.998-7.996 7.998zM983.856 799.912a7.986 7.986 0 0 1-6.872-3.904l-41.114-68.762-41.114 68.762a8 8 0 0 1-13.746-8.184l47.984-80.258c2.906-4.842 10.844-4.842 13.746 0l47.988 80.258a8.006 8.006 0 0 1-2.782 10.964 8.06 8.06 0 0 1-4.09 1.124z" fill="" /><path d="M839.898 799.912a7.924 7.924 0 0 1-4.418-1.344 7.98 7.98 0 0 1-2.234-11.074l31.988-48.236c2.938-4.466 10.376-4.466 13.308 0l23.586 35.552a7.982 7.982 0 0 1-2.23 11.074c-3.704 2.468-8.672 1.438-11.074-2.232l-16.934-25.508-25.336 38.192a7.932 7.932 0 0 1-6.656 3.576zM472.02 591.976a8 8 0 0 1-6.716-3.64l-97.26-149.634-97.258 149.634a8.01 8.01 0 0 1-11.068 2.36 8.016 8.016 0 0 1-2.35-11.074l103.968-159.952c2.954-4.546 10.466-4.546 13.418 0l103.968 159.952a8.016 8.016 0 0 1-2.352 11.074 7.948 7.948 0 0 1-4.35 1.28z" fill="" /><path d="M200.088 591.976a7.994 7.994 0 0 1-6.646-12.434l63.98-95.87a8 8 0 0 1 13.308 0l31.522 47.244a7.994 7.994 0 0 1-2.218 11.09c-3.67 2.422-8.646 1.454-11.09-2.216l-24.868-37.27-57.326 85.896a8 8 0 0 1-6.662 3.56zM824.406 751.926c-13.23 0-23.996-10.762-23.996-23.992s10.766-23.992 23.996-23.992 23.992 10.762 23.992 23.992-10.762 23.992-23.992 23.992z m0-31.988c-4.406 0-8 3.592-8 7.996a8.014 8.014 0 0 0 8 7.998 8.014 8.014 0 0 0 7.996-7.998 8.012 8.012 0 0 0-7.996-7.996zM184.1 480.01c-22.048 0-39.988-17.94-39.988-39.988 0-22.046 17.94-39.986 39.988-39.986s39.988 17.94 39.988 39.986c0 22.048-17.94 39.988-39.988 39.988z m0-63.98c-13.23 0-23.992 10.762-23.992 23.992s10.762 23.994 23.992 23.994 23.992-10.762 23.992-23.994c0-13.23-10.76-23.992-23.992-23.992zM967.86 144.114H56.14a7.994 7.994 0 0 1-7.998-7.998 7.994 7.994 0 0 1 7.998-7.998h911.72c4.422 0 8 3.578 8 7.998a7.994 7.994 0 0 1-8 7.998zM919.876 320.058H104.124a7.994 7.994 0 0 1-7.998-7.998V184.1a7.994 7.994 0 0 1 7.998-7.998h815.75a7.99 7.99 0 0 1 7.996 7.998v127.96a7.988 7.988 0 0 1-7.994 7.998z m-807.754-15.994h799.756V192.098H112.122v111.966z" fill="" /><path d="M488.006 591.976H104.124a7.994 7.994 0 0 1-7.998-7.998V360.046a7.994 7.994 0 0 1 7.998-7.998h383.882a7.994 7.994 0 0 1 7.998 7.998v223.932a7.994 7.994 0 0 1-7.998 7.998zM112.122 575.98h367.888V368.044H112.122V575.98zM919.876 432.024H535.992a7.994 7.994 0 0 1-7.996-7.998 7.994 7.994 0 0 1 7.996-7.998h383.882a7.992 7.992 0 0 1 7.996 7.998 7.988 7.988 0 0 1-7.994 7.998zM919.876 384.04H535.992c-4.418 0-7.996-3.576-7.996-7.998s3.578-7.998 7.996-7.998h383.882c4.422 0 7.996 3.576 7.996 7.998s-3.574 7.998-7.994 7.998zM695.946 480.01h-159.954a7.992 7.992 0 0 1-7.996-7.998 7.994 7.994 0 0 1 7.996-7.998h159.954a7.994 7.994 0 0 1 7.996 7.998 7.992 7.992 0 0 1-7.996 7.998zM679.95 527.996h-143.958c-4.418 0-7.996-3.578-7.996-7.998s3.578-7.998 7.996-7.998h143.958c4.422 0 7.996 3.578 7.996 7.998s-3.574 7.998-7.996 7.998zM679.95 575.98h-143.958c-4.418 0-7.996-3.578-7.996-7.998s3.578-7.998 7.996-7.998h143.958c4.422 0 7.996 3.578 7.996 7.998s-3.574 7.998-7.996 7.998zM1015.848 112.124c-4.422 0-8-3.578-8-7.998 0-22.422-17.554-39.988-39.988-39.988H56.14c-22.422 0-39.988 17.566-39.988 39.988a7.994 7.994 0 0 1-7.998 7.998 7.994 7.994 0 0 1-7.998-7.998c0-31.388 24.594-55.982 55.982-55.982h911.72c31.398 0 55.984 24.594 55.984 55.982a7.99 7.99 0 0 1-7.994 7.998zM679.95 831.902H56.14c-31.388 0-55.982-24.586-55.982-55.984v-31.988a7.994 7.994 0 0 1 7.998-7.998 7.994 7.994 0 0 1 7.998 7.998v31.988c0 22.432 17.566 39.988 39.988 39.988h623.81c4.422 0 7.996 3.578 7.996 7.998s-3.576 7.998-7.998 7.998z" fill="" /><path d="M679.95 799.772H56.14c-31.388 0-55.982-24.602-55.982-55.982V711.8a7.994 7.994 0 0 1 7.998-7.998 7.994 7.994 0 0 1 7.998 7.998v31.99c0 22.414 17.566 39.988 39.988 39.988h623.81a7.99 7.99 0 0 1 7.996 7.996 7.994 7.994 0 0 1-7.998 7.998z" fill="" /><path d="M8.156 719.796a7.994 7.994 0 0 1-7.998-7.998V104.124a7.994 7.994 0 0 1 7.998-7.998 7.994 7.994 0 0 1 7.998 7.998v607.674a7.996 7.996 0 0 1-7.998 7.998zM1015.848 448.02c-4.422 0-8-3.576-8-7.998V104.124a7.994 7.994 0 0 1 8-7.998 7.994 7.994 0 0 1 7.996 7.998V440.02c0 4.424-3.578 8-7.996 8zM967.86 112.124H56.14a7.994 7.994 0 0 1-7.998-7.998 7.994 7.994 0 0 1 7.998-7.998h911.72c4.422 0 8 3.578 8 7.998a7.994 7.994 0 0 1-8 7.998zM679.95 639.96H56.14c-4.42 0-7.998-3.578-7.998-7.998s3.578-7.998 7.998-7.998h623.81c4.422 0 7.996 3.578 7.996 7.998s-3.574 7.998-7.996 7.998z" fill="" /><path d="M56.14 639.96a7.994 7.994 0 0 1-7.998-7.998V104.124a7.994 7.994 0 0 1 7.998-7.998 7.994 7.994 0 0 1 7.998 7.998v527.838a7.994 7.994 0 0 1-7.998 7.998zM967.86 432.024a7.994 7.994 0 0 1-7.996-7.998V104.124a7.994 7.994 0 0 1 7.996-7.998c4.422 0 8 3.578 8 7.998v319.902a7.994 7.994 0 0 1-8 7.998zM967.86 975.858h-175.946c-31.394 0-55.98-24.586-55.98-55.982v-31.99c0-4.42 3.574-7.998 7.996-7.998s7.996 3.578 7.996 7.998v31.99c0 22.43 17.558 39.988 39.988 39.988h175.946c22.434 0 39.988-17.558 39.988-39.988v-31.74a7.994 7.994 0 0 1 8-7.998 7.994 7.994 0 0 1 7.996 7.998v31.74c0 31.396-24.586 55.982-55.984 55.982z" fill="" /><path d="M855.894 256.078H168.106c-4.42 0-7.998-3.576-7.998-7.998s3.576-7.998 7.998-7.998h687.79c4.422 0 7.996 3.576 7.996 7.998s-3.576 7.998-7.998 7.998z" fill="" /></svg>
