<?xml version="1.0" encoding="utf-8"?>
<!-- Uploaded to: SVG Repo, www.svgrepo.com, Generator: SVG Repo Mixer Tools -->
<svg width="800px" height="800px" viewBox="0 0 1024 1024" fill="#000000" class="icon"  version="1.1" xmlns="http://www.w3.org/2000/svg"><path d="M440.122 943.896c-220.454-0.032-399.81-179.402-399.818-399.85 0.008-220.46 179.364-399.816 399.81-399.816 90.052 0 175.044 29.206 245.762 84.47a7.994 7.994 0 0 1 1.39 11.222 8.008 8.008 0 0 1-11.228 1.382c-67.89-53.046-149.472-81.08-235.924-81.08-211.63 0-383.808 172.186-383.816 383.824 0.008 211.624 172.194 383.824 383.824 383.856 211.644-0.032 383.816-172.232 383.8-383.856 0.016-86.552-28.112-168.266-81.338-236.304a8 8 0 0 1 12.604-9.856c55.444 70.882 84.742 156.008 84.726 246.16 0.016 220.446-179.324 399.818-399.792 399.848z" fill="" /><path d="M440.122 871.898c-87.578 0-169.906-34.11-231.832-96.02-61.924-61.94-96.026-144.262-96.018-231.832 0-87.552 34.102-169.876 96.026-231.806 61.926-61.926 144.24-96.028 231.778-96.028h0.032c70.514 0 137.678 22.03 194.246 63.706a7.98 7.98 0 0 1 1.688 11.174 7.972 7.972 0 0 1-11.166 1.694c-53.804-39.63-117.69-60.582-184.768-60.582h-0.032c-83.274 0-161.558 32.438-220.47 91.34-58.904 58.912-91.34 137.218-91.34 220.5-0.008 83.306 32.43 161.616 91.334 220.51 58.904 58.91 137.226 91.35 220.524 91.35 171.944-0.032 311.834-139.906 311.85-311.828-0.016-67.258-21.068-131.284-60.878-185.156a7.984 7.984 0 0 1 1.672-11.182 7.984 7.984 0 0 1 11.182 1.67c41.872 56.646 64.002 123.958 64.018 194.668-0.02 180.732-147.094 327.792-327.846 327.822z" fill="" /><path d="M440.122 799.96c-141.092-0.032-255.882-114.836-255.882-255.914 0-68.334 26.612-132.594 74.942-180.924 48.33-48.33 112.574-74.942 180.902-74.942h0.032c50.93 0 100.126 14.922 142.28 43.16a8.01 8.01 0 0 1 2.202 11.098 8.008 8.008 0 0 1-11.104 2.194c-39.514-26.472-85.624-40.458-133.376-40.458h-0.032c-64.056 0-124.288 24.95-169.594 70.256-45.308 45.316-70.258 105.554-70.258 169.618 0 132.254 107.616 239.89 239.89 239.922 132.26 0 239.868-107.606 239.868-239.89 0-48.094-14.15-94.478-40.936-134.148a7.994 7.994 0 0 1 2.156-11.104c3.67-2.452 8.636-1.5 11.104 2.156 28.564 42.316 43.668 91.802 43.668 143.098-0.004 141.09-114.778 255.878-255.862 255.878z" fill="" /><path d="M440.106 727.964c-49.118 0-95.3-19.132-130.042-53.882-34.742-34.734-53.874-80.916-53.866-130.036 0-101.414 82.502-183.916 183.916-183.916 31.306 0 62.228 8.02 89.428 23.192a7.99 7.99 0 0 1 3.092 10.878 8.012 8.012 0 0 1-10.876 3.084c-24.826-13.846-53.062-21.162-81.642-21.162-92.59 0-167.924 75.332-167.924 167.922-0.008 44.856 17.46 87.024 49.182 118.728 31.718 31.734 73.888 49.196 118.734 49.196 92.59 0 167.916-75.34 167.916-167.924 0.016-28.728-7.374-57.082-21.368-82.016a7.986 7.986 0 0 1 3.062-10.886 8 8 0 0 1 10.884 3.062c15.338 27.316 23.428 58.388 23.412 89.84 0 101.426-82.494 183.92-183.908 183.92z" fill="" /><path d="M440.106 655.996c-61.714 0-111.942-50.196-111.958-111.918 0.024-61.744 50.258-111.978 111.972-111.978 11.376 0 22.614 1.708 33.406 5.084a7.984 7.984 0 0 1 5.248 10.01c-1.304 4.208-5.834 6.56-10.012 5.248a96.208 96.208 0 0 0-28.642-4.35c-52.906 0-95.958 43.058-95.98 95.986 0.016 52.882 43.066 95.926 95.964 95.926 52.914 0 95.948-43.042 95.948-95.958 0-9.916-1.498-19.708-4.48-29.096a7.984 7.984 0 0 1 5.2-10.042 7.978 7.978 0 0 1 10.042 5.2 112.406 112.406 0 0 1 5.232 33.936c0 61.726-50.212 111.952-111.94 111.952z" fill="" /><path d="M441.316 582.454a39.67 39.67 0 0 1-28.246-11.7c-15.578-15.586-15.578-40.98-0.008-56.566a8.016 8.016 0 0 1 11.316-0.008 8.008 8.008 0 0 1 0.008 11.314c-9.354 9.372-9.354 24.582 0 33.954a23.724 23.724 0 0 0 16.93 7.012h0.024a23.892 23.892 0 0 0 16.96-7.042 8.004 8.004 0 0 1 11.324 11.306c-7.55 7.558-17.586 11.714-28.268 11.73h-0.04z" fill="" /><path d="M441.346 550.452a7.994 7.994 0 0 1-5.654-13.65L958.734 13.806a7.994 7.994 0 0 1 11.308 0 7.992 7.992 0 0 1 0 11.306L447 548.11a7.974 7.974 0 0 1-5.654 2.342zM167.582 1023.828c-11.628 0-19.718-0.5-25.262-6.028-5.654-5.654-6.076-13.948-6.076-25.958 0-22.708 29.064-112.292 32.384-122.43a7.944 7.944 0 0 1 10.082-5.106 7.97 7.97 0 0 1 5.116 10.072c-8.786 26.878-31.588 100.392-31.588 117.462 0 8.792 0.468 13.71 1.382 14.632 0.922 0.906 5.85 1.296 14.602 1.36h0.016c30.104 0 92.708-56.006 114.292-77.59a7.992 7.992 0 0 1 11.306 0 7.992 7.992 0 0 1 0 11.306c-8.418 8.436-83.46 82.276-125.584 82.276-0.232-0.09-0.444 0.004-0.67 0.004zM711.972 1023.86c-42.074 0-117.166-73.902-125.584-82.338a7.992 7.992 0 0 1 0-11.306 7.994 7.994 0 0 1 11.308 0c21.6 21.6 84.226 77.652 114.276 77.652 16.01 0 16.01 0 16.01-15.992-0.016-17.086-22.834-90.616-31.626-117.494a7.968 7.968 0 0 1 5.108-10.072 7.994 7.994 0 0 1 10.088 5.106c3.31 10.136 32.408 99.72 32.424 122.46-0.018 26.61-5.406 31.984-32.004 31.984z" fill="" /><path d="M941.742 50.086a8.018 8.018 0 0 1-7.59-5.466l-11.306-33.954a8.012 8.012 0 0 1 5.058-10.12c4.234-1.376 8.73 0.868 10.122 5.06l11.308 33.954a8.014 8.014 0 0 1-5.06 10.12 8.152 8.152 0 0 1-2.532 0.406z" fill="" /><path d="M851.284 95.316a7.97 7.97 0 0 1-5.652-2.344 7.992 7.992 0 0 1 0-11.306l79.15-79.182a7.994 7.994 0 0 1 11.308 0 7.994 7.994 0 0 1 0 11.308l-79.152 79.182a7.97 7.97 0 0 1-5.654 2.342z" fill="" /><path d="M851.284 140.544a7.992 7.992 0 0 1-7.996-7.996V87.32a7.992 7.992 0 0 1 7.996-7.996 7.992 7.992 0 0 1 7.998 7.996v45.23a7.99 7.99 0 0 1-7.998 7.994zM975.696 61.378c-0.826 0-1.686-0.132-2.514-0.406l-33.954-11.292a8.002 8.002 0 0 1-5.076-10.112c1.39-4.202 5.92-6.436 10.122-5.068l33.954 11.292a8.008 8.008 0 0 1 5.06 10.114 7.99 7.99 0 0 1-7.592 5.472z" fill="" /><path d="M896.514 140.544a7.994 7.994 0 0 1-5.654-13.65l79.184-79.166a7.992 7.992 0 0 1 11.306 0 7.992 7.992 0 0 1 0 11.306l-79.184 79.168a7.96 7.96 0 0 1-5.652 2.342z" fill="" /><path d="M896.514 140.544h-45.23c-4.418 0-7.996-3.576-7.996-7.996s3.578-7.996 7.996-7.996h45.23c4.42 0 7.996 3.576 7.996 7.996s-3.576 7.996-7.996 7.996z" fill="" /></svg>