<!DOCTYPE svg PUBLIC "-//W3C//DTD SVG 1.1//EN" "http://www.w3.org/Graphics/SVG/1.1/DTD/svg11.dtd">
<!-- Uploaded to: SVG Repo, www.svgrepo.com, Transformed by: SVG Repo Mixer Tools -->
<svg height="800px" width="800px" version="1.1" id="Layer_1" xmlns="http://www.w3.org/2000/svg" xmlns:xlink="http://www.w3.org/1999/xlink" viewBox="0 0 512 512" xml:space="preserve" fill="#000000">
<g id="SVGRepo_bgCarrier" stroke-width="0"/>
<g id="SVGRepo_tracerCarrier" stroke-linecap="round" stroke-linejoin="round"/>
<g id="SVGRepo_iconCarrier"> <path style="fill:#616260;" d="M308.028,164.232c-29.156,0-52.031,22.67-52.031,22.67s-21.568-22.67-52.034-22.67 c-29.633,0-53.828,25.508-55.412,56.394c-0.893,17.448,4.495,30.724,12.091,42.753c15.17,24.029,95.453,84.39,95.453,84.39 s79.985-60.154,95.255-84.39c7.612-12.082,12.983-25.305,12.091-42.753C361.856,189.738,337.662,164.232,308.028,164.232"/> <g> <path style="fill:#ffffff;" d="M256.094,362.286c-3.071,0-6.14-0.971-8.725-2.914c-8.435-6.341-82.877-62.7-99.003-88.245 c-6.725-10.65-15.526-27.552-14.313-51.246c2.018-39.348,32.726-70.17,69.911-70.17c22.912,0,41.414,10.401,52.202,18.343 c10.98-7.877,29.731-18.343,51.863-18.343c37.185,0,67.895,30.822,69.911,70.168c1.209,23.65-7.586,40.568-14.306,51.237 c-16.225,25.752-90.408,81.934-98.814,88.255C262.237,361.315,259.165,362.286,256.094,362.286z M203.964,178.75 c-21.355,0-39.71,19.119-40.913,42.619c-0.62,12.079,2.332,22.326,9.866,34.26c9.104,14.422,52.634,50.405,83.174,73.897 c30.433-23.426,73.814-59.344,82.975-73.885c7.539-11.966,10.494-22.215,9.875-34.273c-1.204-23.5-19.559-42.618-40.913-42.618 c-22.612,0-41.662,18.319-41.852,18.505c-2.777,2.709-6.548,4.245-10.43,4.142c-3.881-0.073-7.591-1.675-10.267-4.486 C245.354,196.78,227.566,178.75,203.964,178.75z"/> <path style="fill:#ffffff;" d="M255.997,512c-68.381,0-132.668-26.629-181.02-74.98c-5.669-5.669-5.669-14.862,0-20.533 c5.671-5.669,14.861-5.669,20.533,0c42.867,42.869,99.863,66.476,160.488,66.476s117.62-23.608,160.488-66.476 c42.867-42.867,66.476-99.863,66.476-160.488s-23.609-117.62-66.476-160.488c-42.869-42.869-99.863-66.476-160.488-66.476 S138.377,52.644,95.509,95.512c-57.256,57.256-79.73,141.45-58.65,219.728c2.085,7.742-2.503,15.708-10.244,17.793 c-7.75,2.085-15.708-2.501-17.795-10.244C-2.68,280.078-2.936,234.853,8.085,192.005c11.355-44.152,34.486-84.618,66.892-117.025 C123.329,26.629,187.616,0,255.997,0s132.668,26.629,181.02,74.98c48.352,48.352,74.98,112.639,74.98,181.02 s-26.629,132.667-74.98,181.02C388.665,485.371,324.377,512,255.997,512z"/> <path style="fill:#ffffff;" d="M255.997,452.028c-108.091,0-196.028-87.938-196.028-196.028S147.906,59.972,255.997,59.972 c69.932,0,135.071,37.687,169.997,98.355c4.001,6.948,1.61,15.825-5.338,19.826c-6.951,4-15.823,1.61-19.824-5.338 c-29.76-51.693-85.258-83.807-144.834-83.807c-92.08,0-166.992,74.913-166.992,166.992s74.913,166.992,166.992,166.992 S422.989,348.079,422.989,256c0-8.018,6.501-14.518,14.518-14.518s14.518,6.5,14.518,14.518 C452.025,364.091,364.088,452.028,255.997,452.028z"/> </g> </g>
</svg>