<!DOCTYPE svg PUBLIC "-//W3C//DTD SVG 1.1//EN" "http://www.w3.org/Graphics/SVG/1.1/DTD/svg11.dtd">
<!-- Uploaded to: SVG Repo, www.svgrepo.com, Transformed by: SVG Repo Mixer Tools -->
<svg width="800px" height="800px" viewBox="0 0 24 24" fill="none" xmlns="http://www.w3.org/2000/svg">
<g id="SVGRepo_bgCarrier" stroke-width="0"/>
<g id="SVGRepo_tracerCarrier" stroke-linecap="round" stroke-linejoin="round"/>
<g id="SVGRepo_iconCarrier"> <path d="M12 12C12 11.4477 12.4477 11 13 11H19C19.5523 11 20 11.4477 20 12V19C20 19.5523 19.5523 20 19 20H13C12.4477 20 12 19.5523 12 19V12Z" stroke="#7c8db5" stroke-width="2" stroke-linecap="round"/> <path d="M4 5C4 4.44772 4.44772 4 5 4H8C8.55228 4 9 4.44772 9 5V19C9 19.5523 8.55228 20 8 20H5C4.44772 20 4 19.5523 4 19V5Z" stroke="#7c8db5" stroke-width="2" stroke-linecap="round"/> <path d="M12 5C12 4.44772 12.4477 4 13 4H19C19.5523 4 20 4.44772 20 5V7C20 7.55228 19.5523 8 19 8H13C12.4477 8 12 7.55228 12 7V5Z" stroke="#7c8db5" stroke-width="2" stroke-linecap="round"/> </g>
</svg>