<svg width="1236" height="387" viewBox="0 0 1236 387" fill="none" xmlns="http://www.w3.org/2000/svg">
<rect width="1236" height="387" fill="white"/>
<path d="M362.5 171.5L123.5 292.5H164L245 258L261 293.5H301.5L279.5 244.5L362 209L375 217L390.5 227.5C404.5 246 381.5 256 369.5 257C348.573 258.744 336 246.333 331.5 239L303 259C333.8 305.4 382 299 407.5 283.5C460.5 239 410 180 362.5 171.5Z" fill="#445FBE"/>
<path d="M174.5 259L123 284.5L211.5 94L266.5 212L235 228.5L211.5 178.5L174.5 259Z" fill="#42BBDD"/>
<path d="M321 184.5L355.5 167C341.1 159.4 342.833 149 345.5 144.5C352.7 135.3 364 134.5 369.5 134.5C381 135 389.5 143.667 393 149.5L420 130C416 119.6 405 110.833 400.5 107.5C389.3 98.7 366.5 98.0001 356 99.0001C324.8 102.6 311 124.167 308 134.5C300 160.9 313.333 178.833 321 184.5Z" fill="#42BBDD"/>
<path d="M529.166 244.464C529.166 240.032 527.689 236.246 524.734 233.107C521.779 229.783 517.901 226.921 513.1 224.52C508.299 221.935 503.036 219.442 497.311 217.041C491.771 214.456 486.046 211.686 480.137 208.731C474.412 205.592 469.149 201.991 464.348 197.928C459.547 193.865 455.669 188.972 452.714 183.247C449.944 177.338 448.559 170.32 448.559 162.195C448.559 150.192 451.421 139.943 457.146 131.448C462.871 122.769 470.627 116.121 480.414 111.504C490.386 106.887 501.651 104.579 514.208 104.579C521.595 104.579 529.812 105.41 538.861 107.072C547.91 108.734 556.035 111.319 563.237 114.828L548.833 151.115C542.554 146.314 535.629 142.62 528.058 140.035C520.671 137.265 513.931 135.88 507.837 135.88C502.851 135.88 498.881 136.803 495.926 138.65C492.971 140.497 490.848 142.805 489.555 145.575C488.262 148.16 487.616 150.746 487.616 153.331C487.616 157.578 489.093 161.179 492.048 164.134C495.003 167.089 498.881 169.859 503.682 172.444C508.483 174.845 513.746 177.338 519.471 179.923C525.38 182.508 531.197 185.371 536.922 188.51C542.647 191.649 547.91 195.343 552.711 199.59C557.512 203.837 561.39 208.916 564.345 214.825C567.3 220.55 568.777 227.475 568.777 235.6C568.777 248.711 565.545 259.699 559.082 268.563C552.619 277.427 544.124 284.075 533.598 288.507C523.257 292.939 511.9 295.155 499.527 295.155C487.339 295.155 476.167 293.493 466.01 290.169C455.853 286.66 447.266 282.782 440.249 278.535L456.869 243.356C464.44 249.081 472.658 253.79 481.522 257.483C490.386 261.176 498.881 263.023 507.006 263.023C513.839 263.023 519.194 261.361 523.072 258.037C527.135 254.713 529.166 250.189 529.166 244.464ZM729.171 291H604.244V108.734H720.861V140.589H646.348V259.145H729.171V291ZM617.54 213.717V183.524H709.781V213.717H617.54ZM807.551 291V108.734H851.317V291H807.551ZM749.935 141.974V108.734H909.487V141.974H749.935Z" fill="#445FBE"/>
<path d="M964.9 261.286C964.261 255.104 966.943 235.615 968.365 226.644C960.05 218.116 958.86 198.486 958.771 189.869C959.198 170.257 974.938 153.006 983.287 146.7C994.16 137.533 1014.82 136.84 1023.79 137.64C1030.19 130.818 1051.33 125.204 1061.1 123.25L1055.24 120.052L1053.64 105.129L1036.05 99L1024.59 110.459L1004.61 110.725L993.414 99L976.093 105.129L974.227 120.585L957.439 132.576L941.983 129.912L931.324 144.568L938.252 158.691L932.123 177.611L918 185.073V203.193L932.656 210.122L938.785 229.575L931.057 243.165L941.717 258.088L957.705 254.89L964.9 261.286Z" fill="#445FBE"/>
<path d="M975.826 282.605C972.202 272.585 974.849 246.63 976.626 234.905C989.63 248.335 1007.8 250.805 1015.27 250.361C1046.6 249.295 1062.08 227.888 1065.9 217.317C1073.14 195.999 1068.92 176.99 1065.9 170.15C1060.14 154.375 1043.6 144.213 1036.05 141.104C1045.43 133.43 1074.6 130.267 1088.01 129.646L1098.94 144.568L1091.48 159.225L1098.14 177.878L1112.53 184.807V203.194L1097.61 211.455L1091.48 229.309L1098.94 243.965L1088.28 258.355L1072.03 255.424L1055.5 267.948L1054.17 282.605L1036.32 289L1025.12 277.808H1004.87L993.68 289L975.826 282.605Z" fill="#445FBE"/>
</svg>
